{
.appVersion = "1131";
DisplayStrings = (
"/uniE059",
"/uniE060"
);
date = "2018-08-26 06:58:58 +0000";
familyName = iconfont;
fontMaster = (
{
ascender = 800;
capHeight = 700;
descender = -200;
id = "4E71560D-37DE-4538-9E60-5090AC0C42A9";
xHeight = 500;
}
);
glyphs = (
{
glyphname = A;
lastChange = "2018-08-30 12:26:02 +0000";
layers = (
{
layerId = "4E71560D-37DE-4538-9E60-5090AC0C42A9";
paths = (
{
closed = 1;
nodes = (
"252 704 LINE",
"383 706 LINE",
"487 6 LINE",
"379 2 LINE",
"354 232 LINE",
"395 190 LINE",
"120 201 LINE",
"185 243 LINE",
"109 7 LINE",
"23 2 LINE"
);
},
{
closed = 1;
nodes = (
"347 286 LINE",
"282 683 LINE",
"337 687 LINE",
"198 286 LINE"
);
}
);
width = 600;
}
);
unicode = 0041;
},
{
glyphname = uniE000;
lastChange = "2018-08-30 12:39:19 +0000";
layers = (
{
layerId = "4E71560D-37DE-4538-9E60-5090AC0C42A9";
paths = (
{
closed = 1;
nodes = (
"676 -7 OFFCURVE",
"661 -7 OFFCURVE",
"653 0 CURVE",
"11 644 LINE",
"3 651 OFFCURVE",
"3 665 OFFCURVE",
"11 672 CURVE",
"37 700 LINE",
"45 707 OFFCURVE",
"59 707 OFFCURVE",
"66 700 CURVE",
"711 57 LINE",
"718 48 OFFCURVE",
"718 35 OFFCURVE",
"711 28 CURVE",
"683 0 LINE"
);
},
{
closed = 1;
nodes = (
"718 665 OFFCURVE",
"718 651 OFFCURVE",
"711 644 CURVE",
"66 0 LINE",
"59 -7 OFFCURVE",
"45 -7 OFFCURVE",
"37 0 CURVE",
"11 28 LINE",
"3 35 OFFCURVE",
"3 48 OFFCURVE",
"11 57 CURVE",
"653 700 LINE",
"661 707 OFFCURVE",
"676 707 OFFCURVE",
"683 700 CURVE",
"711 672 LINE"
);
}
);
width = 721;
}
);
unicode = E000;
},
{
glyphname = uniE001;
lastChange = "2018-08-30 12:39:32 +0000";
layers = (
{
layerId = "4E71560D-37DE-4538-9E60-5090AC0C42A9";
paths = (
{
closed = 1;
nodes = (
"502 228 OFFCURVE",
"492 219 OFFCURVE",
"478 219 CURVE",
"28 219 LINE",
"15 219 OFFCURVE",
"5 228 OFFCURVE",
"5 241 CURVE",
"5 261 LINE",
"5 271 OFFCURVE",
"15 284 OFFCURVE",
"28 284 CURVE",
"478 284 LINE",
"492 284 OFFCURVE",
"502 271 OFFCURVE",
"502 261 CURVE",
"502 241 LINE"
);
},
{
closed = 1;
nodes = (
"231 0 OFFCURVE",
"221 10 OFFCURVE",
"221 22 CURVE",
"221 476 LINE",
"221 490 OFFCURVE",
"231 500 OFFCURVE",
"244 500 CURVE",
"263 500 LINE",
"277 500 OFFCURVE",
"286 490 OFFCURVE",
"286 476 CURVE",
"286 22 LINE",
"286 10 OFFCURVE",
"277 0 OFFCURVE",
"263 0 CURVE",
"244 0 LINE"
);
}
);
width = 507;
}
);
unicode = E001;
},
{
glyphname = uniE002;
lastChange = "2019-01-14 06:57:43 +0000";
layers = (
{
layerId = "4E71560D-37DE-4538-9E60-5090AC0C42A9";
paths = (
{
closed = 1;
nodes = (
"730 582 OFFCURVE",
"583 730 OFFCURVE",
"400 730 CURVE",
"217 730 OFFCURVE",
"69 582 OFFCURVE",
"69 400 CURVE",
"69 217 OFFCURVE",
"217 69 OFFCURVE",
"400 69 CURVE",
"583 69 OFFCURVE",
"730 217 OFFCURVE",
"730 400 CURVE"
);
},
{
closed = 1;
nodes = (
"800 179 OFFCURVE",
"621 0 OFFCURVE",
"400 0 CURVE",
"179 0 OFFCURVE",
"0 179 OFFCURVE",
"0 400 CURVE",
"0 621 OFFCURVE",
"179 800 OFFCURVE",
"400 800 CURVE",
"621 800 OFFCURVE",
"800 621 OFFCURVE",
"800 400 CURVE"
);
},
{
closed = 1;
nodes = (
"227 527 LINE",
"224 531 OFFCURVE",
"224 536 OFFCURVE",
"226 540 CURVE",
"254 568 LINE",
"258 570 OFFCURVE",
"264 570 OFFCURVE",
"267 567 CURVE",
"397 436 LINE",
"528 567 LINE",
"531 570 OFFCURVE",
"537 570 OFFCURVE",
"541 568 CURVE",
"569 540 LINE",
"571 536 OFFCURVE",
"571 531 OFFCURVE",
"568 527 CURVE",
"437 397 LINE",
"568 266 LINE",
"571 263 OFFCURVE",
"571 257 OFFCURVE",
"569 253 CURVE",
"541 225 LINE",
"537 223 OFFCURVE",
"531 223 OFFCURVE",
"528 226 CURVE",
"397 357 LINE",
"267 226 LINE",
"263 223 OFFCURVE",
"258 223 OFFCURVE",
"254 225 CURVE",
"226 253 LINE",
"224 257 OFFCURVE",
"224 263 OFFCURVE",
"227 266 CURVE",
"358 397 LINE"
);
}
);
width = 800;
}
);
unicode = E002;
},
{
glyphname = uniE003;
lastChange = "2019-01-14 06:55:00 +0000";
layers = (
{
layerId = "4E71560D-37DE-4538-9E60-5090AC0C42A9";
paths = (
{
closed = 1;
nodes = (
"731 583 OFFCURVE",
"584 731 OFFCURVE",
"401 731 CURVE",
"218 731 OFFCURVE",
"70 583 OFFCURVE",
"70 401 CURVE",
"70 218 OFFCURVE",
"218 70 OFFCURVE",
"401 70 CURVE",
"584 70 OFFCURVE",
"731 218 OFFCURVE",
"731 401 CURVE"
);
},
{
closed = 1;
nodes = (
"800 179 OFFCURVE",
"621 0 OFFCURVE",
"400 0 CURVE",
"179 0 OFFCURVE",
"0 179 OFFCURVE",
"0 400 CURVE",
"0 621 OFFCURVE",
"179 800 OFFCURVE",
"400 800 CURVE",
"621 800 OFFCURVE",
"800 621 OFFCURVE",
"800 400 CURVE"
);
},
{
closed = 1;
nodes = (
"187 372 LINE",
"183 372 OFFCURVE",
"179 376 OFFCURVE",
"178 381 CURVE",
"178 419 LINE",
"179 424 OFFCURVE",
"182 428 OFFCURVE",
"187 429 CURVE",
"613 429 LINE",
"618 428 OFFCURVE",
"621 424 OFFCURVE",
"622 419 CURVE",
"622 381 LINE",
"621 376 OFFCURVE",
"617 372 OFFCURVE",
"613 372 CURVE"
);
}
);
width = 800;
}
);
unicode = E003;
},
{
glyphname = uniE004;
lastChange = "2018-11-13 13:01:37 +0000";
layers = (
{
layerId = "4E71560D-37DE-4538-9E60-5090AC0C42A9";
paths = (
{
closed = 1;
nodes = (
"493 449 LINE",
"493 493 OFFCURVE",
"493 490 OFFCURVE",
"451 493 CURVE",
"437 493 OFFCURVE",
"431 487 OFFCURVE",
"431 471 CURVE",
"431 367 OFFCURVE",
"431 264 OFFCURVE",
"431 163 CURVE",
"431 119 OFFCURVE",
"431 119 OFFCURVE",
"475 119 CURVE",
"491 119 OFFCURVE",
"493 126 OFFCURVE",
"493 138 CURVE",
"493 195 OFFCURVE",
"493 249 OFFCURVE",
"493 304 CURVE SMOOTH"
);
},
{
closed = 1;
nodes = (
"185 158 LINE",
"185 119 OFFCURVE",
"185 119 OFFCURVE",
"224 119 CURVE",
"247 119 OFFCURVE",
"247 119 OFFCURVE",
"247 143 CURVE",
"247 244 OFFCURVE",
"247 345 OFFCURVE",
"247 446 CURVE",
"247 493 OFFCURVE",
"247 493 OFFCURVE",
"202 493 CURVE",
"189 493 OFFCURVE",
"185 487 OFFCURVE",
"185 475 CURVE",
"185 417 OFFCURVE",
"185 362 OFFCURVE",
"185 306 CURVE SMOOTH"
);
},
{
closed = 1;
nodes = (
"306 249 OFFCURVE",
"306 192 OFFCURVE",
"306 138 CURVE",
"306 126 OFFCURVE",
"308 117 OFFCURVE",
"325 119 CURVE",
"336 119 OFFCURVE",
"346 119 OFFCURVE",
"356 119 CURVE",
"368 117 OFFCURVE",
"372 121 OFFCURVE",
"372 136 CURVE",
"372 249 OFFCURVE",
"372 362 OFFCURVE",
"372 477 CURVE",
"372 487 OFFCURVE",
"370 493 OFFCURVE",
"359 493 CURVE",
"346 490 OFFCURVE",
"336 490 OFFCURVE",
"325 493 CURVE",
"308 493 OFFCURVE",
"306 487 OFFCURVE",
"306 471 CURVE",
"306 417 OFFCURVE",
"306 362 OFFCURVE",
"306 306 CURVE SMOOTH"
);
},
{
closed = 1;
nodes = (
"424 579 OFFCURVE",
"508 580 OFFCURVE",
"594 580 CURVE",
"616 580 OFFCURVE",
"616 580 OFFCURVE",
"616 560 CURVE",
"616 407 OFFCURVE",
"616 253 OFFCURVE",
"616 101 CURVE",
"616 34 OFFCURVE",
"570 -3 OFFCURVE",
"514 0 CURVE",
"396 0 OFFCURVE",
"279 0 OFFCURVE",
"159 0 CURVE",
"104 0 OFFCURVE",
"62 35 OFFCURVE",
"62 98 CURVE",
"62 253 OFFCURVE",
"62 407 OFFCURVE",
"62 562 CURVE",
"62 578 OFFCURVE",
"69 584 OFFCURVE",
"84 580 CURVE",
"170 580 OFFCURVE",
"255 581 OFFCURVE",
"340 580 CURVE SMOOTH"
);
},
{
closed = 1;
nodes = (
"368 707 OFFCURVE",
"392 707 OFFCURVE",
"416 707 CURVE",
"420 707 OFFCURVE",
"428 710 OFFCURVE",
"431 712 CURVE",
"431 717 OFFCURVE",
"431 725 OFFCURVE",
"426 731 CURVE",
"420 736 OFFCURVE",
"413 738 OFFCURVE",
"404 738 CURVE",
"361 742 OFFCURVE",
"317 742 OFFCURVE",
"273 738 CURVE",
"269 738 OFFCURVE",
"260 738 OFFCURVE",
"255 734 CURVE",
"252 727 OFFCURVE",
"249 720 OFFCURVE",
"247 712 CURVE",
"252 712 OFFCURVE",
"258 707 OFFCURVE",
"262 707 CURVE",
"289 707 OFFCURVE",
"315 707 OFFCURVE",
"340 707 CURVE"
);
},
{
closed = 1;
nodes = (
"235 615 OFFCURVE",
"128 616 OFFCURVE",
"22 616 CURVE",
"0 616 OFFCURVE",
"0 616 OFFCURVE",
"0 637 CURVE",
"0 643 OFFCURVE",
"0 650 OFFCURVE",
"0 655 CURVE",
"-2 670 OFFCURVE",
"3 679 OFFCURVE",
"20 675 CURVE",
"24 675 OFFCURVE",
"29 681 OFFCURVE",
"33 687 CURVE",
"39 702 OFFCURVE",
"53 707 OFFCURVE",
"69 707 CURVE",
"101 707 OFFCURVE",
"136 707 OFFCURVE",
"170 707 CURVE",
"180 707 OFFCURVE",
"185 710 OFFCURVE",
"185 722 CURVE",
"190 771 OFFCURVE",
"222 800 OFFCURVE",
"273 800 CURVE",
"317 800 OFFCURVE",
"361 800 OFFCURVE",
"402 800 CURVE",
"454 803 OFFCURVE",
"493 771 OFFCURVE",
"493 720 CURVE",
"493 710 OFFCURVE",
"497 707 OFFCURVE",
"508 707 CURVE",
"542 707 OFFCURVE",
"576 707 OFFCURVE",
"609 707 CURVE",
"626 707 OFFCURVE",
"639 702 OFFCURVE",
"647 687 CURVE",
"649 681 OFFCURVE",
"656 679 OFFCURVE",
"664 675 CURVE",
"675 675 OFFCURVE",
"681 670 OFFCURVE",
"677 659 CURVE",
"677 611 OFFCURVE",
"686 616 OFFCURVE",
"636 616 CURVE",
"538 616 OFFCURVE",
"439 617 OFFCURVE",
"340 616 CURVE SMOOTH"
);
}
);
width = 678;
}
);
unicode = E004;
},
{
glyphname = uniE005;
lastChange = "2018-08-30 12:39:52 +0000";
layers = (
{
layerId = "4E71560D-37DE-4538-9E60-5090AC0C42A9";
paths = (
{
closed = 1;
nodes = (
"68 537 OFFCURVE",
"162 631 OFFCURVE",
"276 631 CURVE",
"390 631 OFFCURVE",
"483 537 OFFCURVE",
"483 423 CURVE",
"483 308 OFFCURVE",
"390 215 OFFCURVE",
"276 215 CURVE",
"162 215 OFFCURVE",
"68 308 OFFCURVE",
"68 423 CURVE SMOOTH"
);
},
{
closed = 1;
nodes = (
"499 262 LINE",
"531 308 OFFCURVE",
"551 363 OFFCURVE",
"551 423 CURVE",
"551 576 OFFCURVE",
"429 700 OFFCURVE",
"276 700 CURVE",
"123 700 OFFCURVE",
"0 576 OFFCURVE",
"0 423 CURVE",
"0 272 OFFCURVE",
"123 148 OFFCURVE",
"276 148 CURVE",
"321 148 OFFCURVE",
"364 159 OFFCURVE",
"401 179 CURVE",
"533 16 LINE",
"555 -12 OFFCURVE",
"596 -15 OFFCURVE",
"624 7 CURVE",
"651 30 OFFCURVE",
"655 71 OFFCURVE",
"634 97 CURVE SMOOTH"
);
}
);
width = 647;
}
);
unicode = E005;
},
{
glyphname = uniE006;
lastChange = "2018-08-30 12:39:57 +0000";
layers = (
{
layerId = "4E71560D-37DE-4538-9E60-5090AC0C42A9";
paths = (
{
closed = 1;
nodes = (
"565 701 OFFCURVE",
"556 696 OFFCURVE",
"548 689 CURVE",
"529 672 OFFCURVE",
"510 653 OFFCURVE",
"494 636 CURVE",
"479 622 OFFCURVE",
"479 622 OFFCURVE",
"494 608 CURVE",
"534 565 OFFCURVE",
"575 524 OFFCURVE",
"618 484 CURVE",
"625 474 OFFCURVE",
"629 477 OFFCURVE",
"637 484 CURVE",
"656 505 OFFCURVE",
"672 527 OFFCURVE",
"691 548 CURVE",
"708 565 OFFCURVE",
"708 584 OFFCURVE",
"691 600 CURVE",
"663 631 OFFCURVE",
"632 662 OFFCURVE",
"603 691 CURVE",
"596 696 OFFCURVE",
"587 701 OFFCURVE",
"577 705 CURVE"
);
},
{
closed = 1;
nodes = (
"575 436 OFFCURVE",
"575 438 OFFCURVE",
"572 441 CURVE",
"527 484 OFFCURVE",
"484 529 OFFCURVE",
"439 572 CURVE",
"432 581 OFFCURVE",
"427 577 OFFCURVE",
"420 572 CURVE",
"389 536 OFFCURVE",
"353 503 OFFCURVE",
"322 469 CURVE",
"217 367 OFFCURVE",
"115 262 OFFCURVE",
"10 157 CURVE",
"5 153 OFFCURVE",
"0 143 OFFCURVE",
"0 136 CURVE",
"0 95 OFFCURVE",
"0 57 OFFCURVE",
"0 17 CURVE",
"0 5 OFFCURVE",
"5 0 OFFCURVE",
"17 0 CURVE",
"55 0 OFFCURVE",
"93 0 OFFCURVE",
"132 0 CURVE",
"143 0 OFFCURVE",
"153 5 OFFCURVE",
"160 12 CURVE",
"294 145 OFFCURVE",
"425 279 OFFCURVE",
"556 410 CURVE",
"563 417 OFFCURVE",
"570 427 OFFCURVE",
"577 434 CURVE"
);
}
);
width = 704;
}
);
unicode = E006;
},
{
glyphname = uniE007;
lastChange = "2018-08-30 12:40:02 +0000";
layers = (
{
layerId = "4E71560D-37DE-4538-9E60-5090AC0C42A9";
paths = (
{
closed = 1;
nodes = (
"216 93 LINE",
"245 93 OFFCURVE",
"269 93 OFFCURVE",
"298 93 CURVE",
"312 93 OFFCURVE",
"322 103 OFFCURVE",
"322 117 CURVE",
"322 127 OFFCURVE",
"312 137 OFFCURVE",
"293 137 CURVE",
"293 137 OFFCURVE",
"293 137 OFFCURVE",
"288 137 CURVE",
"240 137 OFFCURVE",
"196 137 OFFCURVE",
"148 137 CURVE",
"143 137 OFFCURVE",
"138 137 OFFCURVE",
"133 137 CURVE",
"119 132 OFFCURVE",
"114 127 OFFCURVE",
"114 117 CURVE",
"114 103 OFFCURVE",
"124 93 OFFCURVE",
"143 93 CURVE",
"167 93 OFFCURVE",
"191 93 OFFCURVE",
"216 93 CURVE"
);
},
{
closed = 1;
nodes = (
"128 59 LINE",
"128 30 OFFCURVE",
"148 16 OFFCURVE",
"167 6 CURVE",
"172 6 OFFCURVE",
"177 1 OFFCURVE",
"182 -4 CURVE",
"187 -18 OFFCURVE",
"196 -28 OFFCURVE",
"216 -28 CURVE",
"230 -33 OFFCURVE",
"249 -23 OFFCURVE",
"254 -9 CURVE",
"259 1 OFFCURVE",
"264 6 OFFCURVE",
"274 11 CURVE",
"298 16 OFFCURVE",
"308 35 OFFCURVE",
"308 59 CURVE"
);
},
{
closed = 1;
nodes = (
"245 170 OFFCURVE",
"274 175 OFFCURVE",
"303 170 CURVE",
"317 170 OFFCURVE",
"317 175 OFFCURVE",
"317 185 CURVE",
"317 204 OFFCURVE",
"317 219 OFFCURVE",
"317 233 CURVE",
"317 238 OFFCURVE",
"317 248 OFFCURVE",
"322 248 CURVE",
"341 282 OFFCURVE",
"361 311 OFFCURVE",
"385 340 CURVE",
"429 398 OFFCURVE",
"448 461 OFFCURVE",
"429 533 CURVE",
"404 659 OFFCURVE",
"274 732 OFFCURVE",
"148 688 CURVE",
"17 645 OFFCURVE",
"-41 490 OFFCURVE",
"32 369 CURVE",
"56 335 OFFCURVE",
"80 301 OFFCURVE",
"104 272 CURVE",
"114 253 OFFCURVE",
"119 238 OFFCURVE",
"119 219 CURVE",
"119 209 OFFCURVE",
"119 195 OFFCURVE",
"119 185 CURVE",
"119 175 OFFCURVE",
"119 170 OFFCURVE",
"133 170 CURVE",
"162 175 OFFCURVE",
"191 170 OFFCURVE",
"216 170 CURVE SMOOTH"
);
}
);
width = 436;
}
);
unicode = E007;
},
{
glyphname = uniE008;
lastChange = "2018-08-30 12:40:07 +0000";
layers = (
{
layerId = "4E71560D-37DE-4538-9E60-5090AC0C42A9";
paths = (
{
closed = 1;
nodes = (
"537 432 LINE",
"537 0 LINE",
"0 0 LINE",
"0 700 LINE",
"304 700 LINE",
"304 432 LINE"
);
},
{
closed = 1;
nodes = (
"346 481 LINE",
"346 700 LINE",
"530 481 LINE"
);
}
);
width = 537;
}
);
unicode = E008;
},
{
glyphname = uniE009;
lastChange = "2018-08-30 12:40:11 +0000";
layers = (
{
layerId = "4E71560D-37DE-4538-9E60-5090AC0C42A9";
paths = (
{
closed = 1;
nodes = (
"518 0 OFFCURVE",
"643 0 OFFCURVE",
"767 0 CURVE",
"796 0 OFFCURVE",
"806 10 OFFCURVE",
"806 39 CURVE",
"806 183 OFFCURVE",
"806 327 OFFCURVE",
"806 462 CURVE",
"806 491 OFFCURVE",
"796 500 OFFCURVE",
"767 500 CURVE",
"671 500 OFFCURVE",
"585 500 OFFCURVE",
"489 500 CURVE",
"441 500 OFFCURVE",
"393 500 OFFCURVE",
"345 500 CURVE",
"336 500 OFFCURVE",
"326 500 OFFCURVE",
"326 509 CURVE",
"296 539 OFFCURVE",
"278 567 OFFCURVE",
"258 587 CURVE",
"249 596 OFFCURVE",
"231 607 OFFCURVE",
"220 607 CURVE",
"163 607 OFFCURVE",
"95 607 OFFCURVE",
"38 607 CURVE",
"9 607 OFFCURVE",
"0 596 OFFCURVE",
"0 567 CURVE",
"0 395 OFFCURVE",
"0 221 OFFCURVE",
"0 48 CURVE",
"0 10 OFFCURVE",
"9 0 OFFCURVE",
"38 0 CURVE",
"163 0 OFFCURVE",
"278 0 OFFCURVE",
"403 0 CURVE SMOOTH"
);
}
);
width = 806;
}
);
unicode = E009;
},
{
glyphname = uniE010;
lastChange = "2018-11-13 13:01:54 +0000";
layers = (
{
layerId = "4E71560D-37DE-4538-9E60-5090AC0C42A9";
paths = (
{
closed = 1;
nodes = (
"233 316 OFFCURVE",
"300 234 OFFCURVE",
"402 234 CURVE",
"497 234 OFFCURVE",
"568 305 OFFCURVE",
"568 399 CURVE",
"568 493 OFFCURVE",
"501 565 OFFCURVE",
"402 569 CURVE",
"304 569 OFFCURVE",
"233 486 OFFCURVE",
"236 399 CURVE"
);
},
{
closed = 1;
nodes = (
"718 609 OFFCURVE",
"715 597 OFFCURVE",
"710 589 CURVE",
"703 581 OFFCURVE",
"695 573 OFFCURVE",
"687 565 CURVE",
"670 550 OFFCURVE",
"667 534 OFFCURVE",
"675 514 CURVE",
"684 493 OFFCURVE",
"699 483 OFFCURVE",
"718 483 CURVE",
"730 483 OFFCURVE",
"742 483 OFFCURVE",
"755 483 CURVE",
"782 478 OFFCURVE",
"797 463 OFFCURVE",
"797 434 CURVE",
"802 411 OFFCURVE",
"797 387 OFFCURVE",
"797 365 CURVE",
"797 336 OFFCURVE",
"782 320 OFFCURVE",
"755 320 CURVE",
"742 316 OFFCURVE",
"730 320 OFFCURVE",
"718 316 CURVE",
"699 316 OFFCURVE",
"684 305 OFFCURVE",
"675 285 CURVE",
"667 268 OFFCURVE",
"670 249 OFFCURVE",
"687 237 CURVE",
"734 193 OFFCURVE",
"734 162 OFFCURVE",
"684 118 CURVE",
"680 111 OFFCURVE",
"670 107 OFFCURVE",
"667 99 CURVE",
"639 75 OFFCURVE",
"612 75 OFFCURVE",
"584 99 CURVE",
"576 107 OFFCURVE",
"571 111 OFFCURVE",
"565 118 CURVE",
"552 131 OFFCURVE",
"537 135 OFFCURVE",
"521 131 CURVE",
"501 122 OFFCURVE",
"486 111 OFFCURVE",
"486 87 CURVE",
"486 75 OFFCURVE",
"486 68 OFFCURVE",
"486 56 CURVE",
"481 20 OFFCURVE",
"466 0 OFFCURVE",
"430 0 CURVE",
"410 0 OFFCURVE",
"390 0 OFFCURVE",
"374 0 CURVE",
"339 0 OFFCURVE",
"323 20 OFFCURVE",
"323 52 CURVE",
"320 64 OFFCURVE",
"323 75 OFFCURVE",
"320 87 CURVE",
"320 107 OFFCURVE",
"308 122 OFFCURVE",
"284 131 CURVE",
"264 135 OFFCURVE",
"249 131 OFFCURVE",
"236 115 CURVE",
"233 111 OFFCURVE",
"229 107 OFFCURVE",
"224 107 CURVE",
"192 71 OFFCURVE",
"165 71 OFFCURVE",
"134 107 CURVE",
"122 118 OFFCURVE",
"110 131 OFFCURVE",
"98 142 CURVE",
"79 162 OFFCURVE",
"79 189 OFFCURVE",
"98 215 CURVE",
"102 221 OFFCURVE",
"110 230 OFFCURVE",
"117 234 CURVE",
"134 249 OFFCURVE",
"138 265 OFFCURVE",
"131 285 CURVE",
"122 305 OFFCURVE",
"105 316 OFFCURVE",
"83 316 CURVE",
"71 320 OFFCURVE",
"55 320 OFFCURVE",
"42 320 CURVE",
"19 324 OFFCURVE",
"4 339 OFFCURVE",
"4 365 CURVE",
"-1 387 OFFCURVE",
"-1 411 OFFCURVE",
"4 434 CURVE",
"4 463 OFFCURVE",
"19 474 OFFCURVE",
"42 478 CURVE",
"55 483 OFFCURVE",
"71 483 OFFCURVE",
"83 483 CURVE",
"105 483 OFFCURVE",
"122 493 OFFCURVE",
"131 514 CURVE",
"138 534 OFFCURVE",
"131 553 OFFCURVE",
"117 565 CURVE",
"110 573 OFFCURVE",
"105 576 OFFCURVE",
"98 584 CURVE",
"74 609 OFFCURVE",
"74 636 OFFCURVE",
"102 659 CURVE",
"114 675 OFFCURVE",
"125 688 OFFCURVE",
"142 703 CURVE",
"165 722 OFFCURVE",
"192 722 OFFCURVE",
"217 703 CURVE",
"224 696 OFFCURVE",
"229 691 OFFCURVE",
"236 684 CURVE",
"249 668 OFFCURVE",
"268 664 OFFCURVE",
"289 671 CURVE",
"308 681 OFFCURVE",
"320 696 OFFCURVE",
"323 719 CURVE",
"323 731 OFFCURVE",
"323 739 OFFCURVE",
"323 751 CURVE",
"323 778 OFFCURVE",
"339 799 OFFCURVE",
"368 799 CURVE",
"390 799 OFFCURVE",
"410 799 OFFCURVE",
"430 799 CURVE",
"466 799 OFFCURVE",
"481 782 OFFCURVE",
"486 747 CURVE",
"486 734 OFFCURVE",
"486 722 OFFCURVE",
"486 715 CURVE",
"486 691 OFFCURVE",
"501 681 OFFCURVE",
"518 671 CURVE",
"537 664 OFFCURVE",
"552 668 OFFCURVE",
"568 681 CURVE",
"576 688 OFFCURVE",
"580 696 OFFCURVE",
"587 703 CURVE",
"616 722 OFFCURVE",
"639 722 OFFCURVE",
"662 703 CURVE",
"680 688 OFFCURVE",
"695 671 OFFCURVE",
"710 655 CURVE",
"718 649 OFFCURVE",
"718 632 OFFCURVE",
"726 621 CURVE"
);
}
);
width = 799;
}
);
unicode = E010;
},
{
glyphname = uniE011;
lastChange = "2018-08-30 12:40:20 +0000";
layers = (
{
layerId = "4E71560D-37DE-4538-9E60-5090AC0C42A9";
paths = (
{
closed = 1;
nodes = (
"425 81 OFFCURVE",
"447 104 OFFCURVE",
"447 134 CURVE",
"447 163 OFFCURVE",
"421 186 OFFCURVE",
"392 186 CURVE",
"362 186 OFFCURVE",
"340 163 OFFCURVE",
"340 134 CURVE",
"340 104 OFFCURVE",
"362 81 OFFCURVE",
"392 81 CURVE"
);
},
{
closed = 1;
nodes = (
"343 420 OFFCURVE",
"347 368 OFFCURVE",
"351 316 CURVE",
"351 294 OFFCURVE",
"358 271 OFFCURVE",
"362 249 CURVE",
"366 234 OFFCURVE",
"377 227 OFFCURVE",
"392 227 CURVE",
"407 227 OFFCURVE",
"418 234 OFFCURVE",
"421 249 CURVE",
"425 256 OFFCURVE",
"429 268 OFFCURVE",
"429 279 CURVE",
"436 335 OFFCURVE",
"440 390 OFFCURVE",
"444 443 CURVE",
"447 469 OFFCURVE",
"444 498 OFFCURVE",
"440 524 CURVE",
"440 547 OFFCURVE",
"425 562 OFFCURVE",
"399 562 CURVE",
"377 565 OFFCURVE",
"351 554 OFFCURVE",
"347 532 CURVE",
"340 513 OFFCURVE",
"340 469 OFFCURVE",
"340 469 CURVE"
);
},
{
closed = 1;
nodes = (
"287 0 OFFCURVE",
"187 0 OFFCURVE",
"86 0 CURVE",
"27 0 OFFCURVE",
"-14 52 OFFCURVE",
"4 111 CURVE",
"8 119 OFFCURVE",
"16 130 OFFCURVE",
"19 141 CURVE",
"86 253 OFFCURVE",
"150 368 OFFCURVE",
"217 480 CURVE",
"250 539 OFFCURVE",
"280 599 OFFCURVE",
"313 658 CURVE",
"347 714 OFFCURVE",
"425 714 OFFCURVE",
"459 658 CURVE",
"511 573 OFFCURVE",
"559 484 OFFCURVE",
"608 398 CURVE",
"660 309 OFFCURVE",
"712 219 OFFCURVE",
"760 126 CURVE",
"786 85 OFFCURVE",
"775 33 OFFCURVE",
"734 11 CURVE",
"719 3 OFFCURVE",
"704 0 OFFCURVE",
"689 0 CURVE",
"589 0 OFFCURVE",
"488 0 OFFCURVE",
"388 0 CURVE",
"388 0 LINE"
);
}
);
width = 774;
}
);
unicode = E011;
},
{
glyphname = uniE012;
lastChange = "2018-08-30 12:40:25 +0000";
layers = (
{
layerId = "4E71560D-37DE-4538-9E60-5090AC0C42A9";
paths = (
{
closed = 1;
nodes = (
"321 443 OFFCURVE",
"326 443 OFFCURVE",
"326 443 CURVE",
"339 447 OFFCURVE",
"353 447 OFFCURVE",
"366 443 CURVE",
"375 438 OFFCURVE",
"375 443 OFFCURVE",
"384 447 CURVE",
"398 461 OFFCURVE",
"412 479 OFFCURVE",
"430 493 CURVE",
"443 511 OFFCURVE",
"466 511 OFFCURVE",
"484 502 CURVE",
"511 484 OFFCURVE",
"515 452 OFFCURVE",
"493 425 CURVE",
"466 398 OFFCURVE",
"439 371 OFFCURVE",
"407 339 CURVE",
"384 316 OFFCURVE",
"357 316 OFFCURVE",
"335 339 CURVE",
"326 353 OFFCURVE",
"312 353 OFFCURVE",
"303 343 CURVE",
"294 334 OFFCURVE",
"294 321 OFFCURVE",
"308 307 CURVE",
"339 271 OFFCURVE",
"398 271 OFFCURVE",
"434 307 CURVE",
"466 334 OFFCURVE",
"497 366 OFFCURVE",
"529 398 CURVE",
"552 425 OFFCURVE",
"556 461 OFFCURVE",
"543 497 CURVE",
"520 556 OFFCURVE",
"443 569 OFFCURVE",
"398 524 CURVE",
"371 502 OFFCURVE",
"348 475 OFFCURVE",
"326 447 CURVE",
"321 447 OFFCURVE",
"321 447 OFFCURVE",
"317 443 CURVE"
);
},
{
closed = 1;
nodes = (
"380 258 OFFCURVE",
"380 258 OFFCURVE",
"380 258 CURVE",
"366 253 OFFCURVE",
"353 253 OFFCURVE",
"339 262 CURVE",
"330 262 OFFCURVE",
"326 262 OFFCURVE",
"321 258 CURVE",
"308 240 OFFCURVE",
"290 226 OFFCURVE",
"276 208 CURVE",
"258 194 OFFCURVE",
"235 190 OFFCURVE",
"217 203 CURVE",
"195 217 OFFCURVE",
"190 253 OFFCURVE",
"213 276 CURVE",
"240 303 OFFCURVE",
"267 334 OFFCURVE",
"299 362 CURVE",
"321 384 OFFCURVE",
"344 384 OFFCURVE",
"366 362 CURVE",
"380 353 OFFCURVE",
"389 353 OFFCURVE",
"398 362 CURVE",
"412 371 OFFCURVE",
"407 380 OFFCURVE",
"398 393 CURVE",
"366 429 OFFCURVE",
"312 434 OFFCURVE",
"271 398 CURVE",
"240 366 OFFCURVE",
"208 334 OFFCURVE",
"177 303 CURVE",
"149 276 OFFCURVE",
"145 240 OFFCURVE",
"159 208 CURVE",
"186 149 OFFCURVE",
"258 131 OFFCURVE",
"303 176 CURVE",
"330 203 OFFCURVE",
"357 226 OFFCURVE",
"380 253 CURVE",
"384 253 OFFCURVE",
"384 258 OFFCURVE",
"384 258 CURVE SMOOTH"
);
},
{
closed = 1;
nodes = (
"0 542 OFFCURVE",
"159 700 OFFCURVE",
"353 700 CURVE",
"547 700 OFFCURVE",
"701 542 OFFCURVE",
"701 353 CURVE",
"701 158 OFFCURVE",
"543 0 OFFCURVE",
"353 0 CURVE",
"159 0 OFFCURVE",
"0 158 OFFCURVE",
"0 353 CURVE SMOOTH"
);
}
);
width = 701;
}
);
unicode = E012;
},
{
glyphname = uniE013;
lastChange = "2018-08-30 12:40:32 +0000";
layers = (
{
layerId = "4E71560D-37DE-4538-9E60-5090AC0C42A9";
paths = (
{
closed = 1;
nodes = (
"701 152 OFFCURVE",
"550 0 OFFCURVE",
"352 0 CURVE",
"166 0 OFFCURVE",
"0 152 OFFCURVE",
"0 349 CURVE",
"0 545 OFFCURVE",
"151 700 OFFCURVE",
"352 700 CURVE",
"537 700 OFFCURVE",
"701 545 OFFCURVE",
"701 349 CURVE"
);
},
{
closed = 1;
nodes = (
"227 304 LINE",
"489 304 LINE",
"489 374 LINE",
"227 374 LINE"
);
},
{
closed = 1;
nodes = (
"166 430 LINE",
"550 430 LINE",
"550 500 LINE",
"166 500 LINE"
);
},
{
closed = 1;
nodes = (
"262 178 LINE",
"454 178 LINE",
"454 248 LINE",
"262 248 LINE"
);
}
);
width = 701;
}
);
unicode = E013;
},
{
glyphname = uniE014;
lastChange = "2018-08-30 17:25:55 +0000";
layers = (
{
layerId = "4E71560D-37DE-4538-9E60-5090AC0C42A9";
paths = (
{
closed = 1;
nodes = (
"221 114 OFFCURVE",
"206 114 OFFCURVE",
"198 121 CURVE",
"6 325 LINE",
"-2 332 OFFCURVE",
"-2 346 OFFCURVE",
"6 353 CURVE",
"32 381 LINE",
"40 388 OFFCURVE",
"54 388 OFFCURVE",
"61 381 CURVE",
"256 178 LINE",
"263 169 OFFCURVE",
"263 156 OFFCURVE",
"256 149 CURVE",
"228 121 LINE"
);
},
{
closed = 1;
nodes = (
"759 665 OFFCURVE",
"759 651 OFFCURVE",
"752 644 CURVE",
"227 120 LINE",
"220 113 OFFCURVE",
"206 113 OFFCURVE",
"198 120 CURVE",
"172 148 LINE",
"164 155 OFFCURVE",
"164 168 OFFCURVE",
"172 177 CURVE",
"694 700 LINE",
"702 707 OFFCURVE",
"717 707 OFFCURVE",
"724 700 CURVE",
"752 672 LINE"
);
}
);
width = 757;
}
);
unicode = E014;
},
{
glyphname = uniE015;
lastChange = "2018-08-30 12:40:41 +0000";
layers = (
{
layerId = "4E71560D-37DE-4538-9E60-5090AC0C42A9";
paths = (
{
closed = 1;
nodes = (
"276 1 OFFCURVE",
"341 0 OFFCURVE",
"402 0 CURVE",
"424 0 OFFCURVE",
"434 6 OFFCURVE",
"434 29 CURVE",
"434 67 OFFCURVE",
"434 106 OFFCURVE",
"434 141 CURVE",
"434 144 OFFCURVE",
"434 148 OFFCURVE",
"434 151 CURVE",
"434 164 OFFCURVE",
"424 172 OFFCURVE",
"411 172 CURVE",
"401 172 OFFCURVE",
"389 164 OFFCURVE",
"389 151 CURVE",
"389 148 OFFCURVE",
"389 144 OFFCURVE",
"389 141 CURVE",
"389 112 OFFCURVE",
"389 83 OFFCURVE",
"389 54 CURVE",
"389 48 OFFCURVE",
"386 45 OFFCURVE",
"379 45 CURVE",
"270 45 OFFCURVE",
"161 45 OFFCURVE",
"55 45 CURVE",
"45 45 OFFCURVE",
"42 48 OFFCURVE",
"42 54 CURVE",
"42 80 OFFCURVE",
"42 103 OFFCURVE",
"42 125 CURVE",
"42 135 OFFCURVE",
"42 141 OFFCURVE",
"42 148 CURVE",
"42 160 OFFCURVE",
"32 172 OFFCURVE",
"22 172 CURVE",
"10 172 OFFCURVE",
"0 164 OFFCURVE",
"0 151 CURVE",
"0 148 OFFCURVE",
"0 144 OFFCURVE",
"0 141 CURVE",
"0 106 OFFCURVE",
"0 67 OFFCURVE",
"0 29 CURVE",
"0 9 OFFCURVE",
"6 0 OFFCURVE",
"29 0 CURVE",
"90 0 OFFCURVE",
"151 -1 OFFCURVE",
"215 0 CURVE SMOOTH"
);
},
{
closed = 1;
nodes = (
"190 418 OFFCURVE",
"193 418 OFFCURVE",
"193 418 CURVE",
"193 411 OFFCURVE",
"193 408 OFFCURVE",
"193 405 CURVE",
"193 334 OFFCURVE",
"193 266 OFFCURVE",
"193 196 CURVE",
"193 193 OFFCURVE",
"193 189 OFFCURVE",
"193 183 CURVE",
"196 173 OFFCURVE",
"206 164 OFFCURVE",
"215 164 CURVE",
"228 164 OFFCURVE",
"238 173 OFFCURVE",
"238 186 CURVE",
"238 189 OFFCURVE",
"238 193 OFFCURVE",
"238 196 CURVE",
"238 266 OFFCURVE",
"238 334 OFFCURVE",
"238 405 CURVE",
"238 408 OFFCURVE",
"238 411 OFFCURVE",
"238 421 CURVE",
"244 414 OFFCURVE",
"247 411 OFFCURVE",
"251 408 CURVE",
"263 395 OFFCURVE",
"279 379 OFFCURVE",
"292 366 CURVE",
"302 356 OFFCURVE",
"315 356 OFFCURVE",
"324 366 CURVE",
"334 373 OFFCURVE",
"334 389 OFFCURVE",
"324 398 CURVE",
"292 427 OFFCURVE",
"263 456 OFFCURVE",
"234 488 CURVE",
"222 501 OFFCURVE",
"209 501 OFFCURVE",
"196 488 CURVE",
"167 456 OFFCURVE",
"138 427 OFFCURVE",
"109 398 CURVE",
"100 389 OFFCURVE",
"100 373 OFFCURVE",
"106 366 CURVE",
"116 356 OFFCURVE",
"128 356 OFFCURVE",
"138 366 CURVE",
"145 369 OFFCURVE",
"148 376 OFFCURVE",
"154 382 CURVE",
"167 395 OFFCURVE",
"177 405 OFFCURVE",
"190 418 CURVE"
);
}
);
width = 434;
}
);
unicode = E015;
},
{
glyphname = uniE016;
lastChange = "2018-08-30 12:40:46 +0000";
layers = (
{
layerId = "4E71560D-37DE-4538-9E60-5090AC0C42A9";
paths = (
{
closed = 1;
nodes = (
"242 245 OFFCURVE",
"239 245 OFFCURVE",
"239 245 CURVE",
"239 251 OFFCURVE",
"239 254 OFFCURVE",
"239 258 CURVE",
"239 328 OFFCURVE",
"239 399 OFFCURVE",
"239 466 CURVE",
"239 470 OFFCURVE",
"239 473 OFFCURVE",
"239 479 CURVE",
"236 489 OFFCURVE",
"226 499 OFFCURVE",
"217 499 CURVE",
"207 499 OFFCURVE",
"194 489 OFFCURVE",
"194 476 CURVE",
"194 473 OFFCURVE",
"194 470 OFFCURVE",
"194 466 CURVE",
"194 396 OFFCURVE",
"194 328 OFFCURVE",
"194 258 CURVE",
"194 254 OFFCURVE",
"194 251 OFFCURVE",
"194 241 CURVE",
"188 248 OFFCURVE",
"185 251 OFFCURVE",
"181 254 CURVE",
"168 267 OFFCURVE",
"156 283 OFFCURVE",
"140 296 CURVE",
"130 306 OFFCURVE",
"117 306 OFFCURVE",
"107 296 CURVE",
"98 290 OFFCURVE",
"101 274 OFFCURVE",
"107 264 CURVE",
"140 235 OFFCURVE",
"168 206 OFFCURVE",
"197 174 CURVE",
"210 161 OFFCURVE",
"223 161 OFFCURVE",
"236 174 CURVE",
"265 206 OFFCURVE",
"294 235 OFFCURVE",
"326 264 CURVE",
"332 274 OFFCURVE",
"336 290 OFFCURVE",
"326 296 CURVE",
"316 306 OFFCURVE",
"303 306 OFFCURVE",
"294 296 CURVE",
"287 293 OFFCURVE",
"284 286 OFFCURVE",
"278 280 CURVE",
"268 270 OFFCURVE",
"255 258 OFFCURVE",
"242 245 CURVE"
);
},
{
closed = 1;
nodes = (
"278 0 OFFCURVE",
"344 0 OFFCURVE",
"405 0 CURVE",
"428 0 OFFCURVE",
"434 10 OFFCURVE",
"434 33 CURVE",
"434 68 OFFCURVE",
"434 107 OFFCURVE",
"434 142 CURVE",
"434 145 OFFCURVE",
"434 152 OFFCURVE",
"434 155 CURVE",
"434 164 OFFCURVE",
"424 174 OFFCURVE",
"411 174 CURVE",
"402 174 OFFCURVE",
"392 164 OFFCURVE",
"392 152 CURVE",
"392 148 OFFCURVE",
"392 145 OFFCURVE",
"392 142 CURVE",
"392 113 OFFCURVE",
"392 84 OFFCURVE",
"392 55 CURVE",
"392 49 OFFCURVE",
"389 45 OFFCURVE",
"379 45 CURVE",
"273 45 OFFCURVE",
"161 45 OFFCURVE",
"55 45 CURVE",
"45 45 OFFCURVE",
"42 49 OFFCURVE",
"42 55 CURVE",
"42 81 OFFCURVE",
"42 103 OFFCURVE",
"42 129 CURVE",
"42 135 OFFCURVE",
"42 142 OFFCURVE",
"42 152 CURVE",
"42 164 OFFCURVE",
"32 174 OFFCURVE",
"23 174 CURVE",
"10 174 OFFCURVE",
"0 164 OFFCURVE",
"0 152 CURVE",
"0 148 OFFCURVE",
"0 145 OFFCURVE",
"0 145 CURVE",
"0 107 OFFCURVE",
"0 68 OFFCURVE",
"0 29 CURVE",
"0 10 OFFCURVE",
"7 0 OFFCURVE",
"29 0 CURVE",
"90 0 OFFCURVE",
"152 0 OFFCURVE",
"217 0 CURVE SMOOTH"
);
}
);
width = 434;
}
);
unicode = E016;
},
{
glyphname = uniE017;
lastChange = "2018-08-30 12:40:49 +0000";
layers = (
{
layerId = "4E71560D-37DE-4538-9E60-5090AC0C42A9";
paths = (
{
closed = 1;
nodes = (
"608 645 OFFCURVE",
"608 645 OFFCURVE",
"608 636 CURVE",
"608 628 OFFCURVE",
"608 613 OFFCURVE",
"608 604 CURVE",
"608 590 OFFCURVE",
"598 581 OFFCURVE",
"583 581 CURVE",
"569 581 OFFCURVE",
"559 590 OFFCURVE",
"559 604 CURVE",
"559 613 OFFCURVE",
"559 628 OFFCURVE",
"559 645 CURVE",
"559 645 OFFCURVE",
"559 653 OFFCURVE",
"552 653 CURVE",
"503 653 OFFCURVE",
"464 653 OFFCURVE",
"424 653 CURVE",
"416 653 OFFCURVE",
"416 645 OFFCURVE",
"416 645 CURVE",
"416 628 OFFCURVE",
"416 613 OFFCURVE",
"416 604 CURVE",
"416 590 OFFCURVE",
"406 581 OFFCURVE",
"392 581 CURVE",
"378 581 OFFCURVE",
"368 590 OFFCURVE",
"368 604 CURVE",
"368 613 OFFCURVE",
"368 628 OFFCURVE",
"368 645 CURVE",
"368 645 OFFCURVE",
"360 653 OFFCURVE",
"360 653 CURVE",
"312 653 OFFCURVE",
"272 653 OFFCURVE",
"225 653 CURVE",
"225 653 OFFCURVE",
"216 645 OFFCURVE",
"216 645 CURVE",
"216 628 OFFCURVE",
"216 613 OFFCURVE",
"216 604 CURVE",
"216 590 OFFCURVE",
"208 581 OFFCURVE",
"195 581 CURVE",
"179 581 OFFCURVE",
"169 590 OFFCURVE",
"169 604 CURVE",
"169 621 OFFCURVE",
"169 636 OFFCURVE",
"169 653 CURVE",
"161 653 LINE",
"129 653 OFFCURVE",
"105 653 OFFCURVE",
"73 653 CURVE",
"56 653 OFFCURVE",
"49 645 OFFCURVE",
"49 628 CURVE",
"49 445 OFFCURVE",
"49 255 OFFCURVE",
"49 71 CURVE",
"49 56 OFFCURVE",
"56 48 OFFCURVE",
"73 48 CURVE",
"289 48 OFFCURVE",
"495 48 OFFCURVE",
"703 48 CURVE",
"719 48 OFFCURVE",
"728 56 OFFCURVE",
"728 71 CURVE",
"728 255 OFFCURVE",
"728 437 OFFCURVE",
"728 628 CURVE",
"728 628 OFFCURVE",
"728 628 OFFCURVE",
"728 636 CURVE",
"728 645 OFFCURVE",
"719 653 OFFCURVE",
"711 653 CURVE",
"679 653 OFFCURVE",
"640 653 OFFCURVE",
"608 653 CURVE"
);
},
{
closed = 1;
nodes = (
"0 642 OFFCURVE",
"0 633 OFFCURVE",
"0 653 CURVE",
"0 677 OFFCURVE",
"32 700 OFFCURVE",
"56 700 CURVE",
"72 700 OFFCURVE",
"155 700 OFFCURVE",
"169 700 CURVE",
"169 700 OFFCURVE",
"169 709 OFFCURVE",
"169 709 CURVE",
"169 724 OFFCURVE",
"169 732 OFFCURVE",
"169 748 CURVE",
"169 763 OFFCURVE",
"186 773 OFFCURVE",
"195 773 CURVE SMOOTH",
"208 773 OFFCURVE",
"216 763 OFFCURVE",
"216 748 CURVE",
"216 732 OFFCURVE",
"216 716 OFFCURVE",
"216 709 CURVE",
"216 700 OFFCURVE",
"225 700 OFFCURVE",
"225 700 CURVE",
"272 700 OFFCURVE",
"312 700 OFFCURVE",
"360 700 CURVE",
"360 700 OFFCURVE",
"368 700 OFFCURVE",
"368 709 CURVE",
"368 716 OFFCURVE",
"368 732 OFFCURVE",
"368 748 CURVE",
"368 763 OFFCURVE",
"378 773 OFFCURVE",
"392 773 CURVE",
"406 773 OFFCURVE",
"416 763 OFFCURVE",
"416 748 CURVE",
"416 732 OFFCURVE",
"416 716 OFFCURVE",
"416 709 CURVE",
"416 700 OFFCURVE",
"416 700 OFFCURVE",
"424 700 CURVE",
"464 700 OFFCURVE",
"503 700 OFFCURVE",
"552 700 CURVE",
"559 700 OFFCURVE",
"559 700 OFFCURVE",
"559 709 CURVE",
"559 716 OFFCURVE",
"559 732 OFFCURVE",
"559 748 CURVE",
"559 763 OFFCURVE",
"576 773 OFFCURVE",
"583 773 CURVE",
"599 773 OFFCURVE",
"608 755 OFFCURVE",
"608 748 CURVE",
"608 732 OFFCURVE",
"608 724 OFFCURVE",
"608 709 CURVE",
"608 700 OFFCURVE",
"608 700 OFFCURVE",
"615 700 CURVE",
"647 700 OFFCURVE",
"679 700 OFFCURVE",
"711 700 CURVE",
"756 700 OFFCURVE",
"775 682 OFFCURVE",
"775 628 CURVE",
"775 445 OFFCURVE",
"775 255 OFFCURVE",
"775 71 CURVE",
"775 24 OFFCURVE",
"751 0 OFFCURVE",
"703 0 CURVE",
"530 0 OFFCURVE",
"103 0 OFFCURVE",
"65 0 CURVE",
"20 0 OFFCURVE",
"0 24 OFFCURVE",
"0 56 CURVE SMOOTH"
);
},
{
closed = 1;
nodes = (
"264 214 OFFCURVE",
"264 197 OFFCURVE",
"264 174 CURVE",
"264 174 OFFCURVE",
"264 165 OFFCURVE",
"264 165 CURVE",
"232 165 OFFCURVE",
"208 165 OFFCURVE",
"176 165 CURVE",
"176 165 OFFCURVE",
"169 174 OFFCURVE",
"169 174 CURVE",
"169 197 OFFCURVE",
"169 214 OFFCURVE",
"169 230 CURVE",
"169 238 OFFCURVE",
"176 238 OFFCURVE",
"176 238 CURVE",
"208 238 OFFCURVE",
"240 238 OFFCURVE",
"264 238 CURVE"
);
},
{
closed = 1;
nodes = (
"586 238 OFFCURVE",
"599 238 CURVE",
"599 238 OFFCURVE",
"608 238 OFFCURVE",
"608 230 CURVE",
"608 214 OFFCURVE",
"608 197 OFFCURVE",
"608 174 CURVE",
"608 174 OFFCURVE",
"608 165 OFFCURVE",
"599 165 CURVE",
"567 165 OFFCURVE",
"544 165 OFFCURVE",
"520 165 CURVE",
"512 165 OFFCURVE",
"512 165 OFFCURVE",
"512 174 CURVE",
"512 197 OFFCURVE",
"512 214 OFFCURVE",
"512 230 CURVE",
"512 238 OFFCURVE",
"512 238 OFFCURVE",
"520 238 CURVE",
"525 238 OFFCURVE"
);
},
{
closed = 1;
nodes = (
"248 477 OFFCURVE",
"257 477 CURVE",
"264 477 OFFCURVE",
"264 477 OFFCURVE",
"264 469 CURVE",
"264 453 OFFCURVE",
"264 437 OFFCURVE",
"264 420 CURVE",
"264 413 OFFCURVE",
"264 413 OFFCURVE",
"257 413 CURVE",
"232 413 OFFCURVE",
"208 413 OFFCURVE",
"184 413 CURVE",
"176 413 OFFCURVE",
"169 413 OFFCURVE",
"169 420 CURVE",
"169 437 OFFCURVE",
"169 453 OFFCURVE",
"169 469 CURVE",
"169 477 OFFCURVE",
"176 477 OFFCURVE",
"184 477 CURVE",
"192 477 OFFCURVE"
);
},
{
closed = 1;
nodes = (
"526 413 OFFCURVE",
"520 413 CURVE",
"512 413 OFFCURVE",
"512 413 OFFCURVE",
"512 420 CURVE",
"512 437 OFFCURVE",
"512 453 OFFCURVE",
"512 469 CURVE",
"512 477 OFFCURVE",
"512 477 OFFCURVE",
"520 477 CURVE",
"544 477 OFFCURVE",
"567 477 OFFCURVE",
"599 477 CURVE",
"608 477 OFFCURVE",
"608 477 OFFCURVE",
"608 469 CURVE",
"608 453 OFFCURVE",
"608 437 OFFCURVE",
"608 420 CURVE",
"608 413 OFFCURVE",
"599 413 OFFCURVE",
"591 413 CURVE",
"584 413 OFFCURVE"
);
},
{
closed = 1;
nodes = (
"194 285 OFFCURVE",
"184 285 CURVE",
"176 285 OFFCURVE",
"169 294 OFFCURVE",
"169 302 CURVE",
"169 317 OFFCURVE",
"169 333 OFFCURVE",
"169 349 CURVE",
"169 358 OFFCURVE",
"176 358 OFFCURVE",
"184 358 CURVE",
"208 358 OFFCURVE",
"232 358 OFFCURVE",
"257 358 CURVE",
"264 358 OFFCURVE",
"264 358 OFFCURVE",
"264 349 CURVE",
"264 333 OFFCURVE",
"264 317 OFFCURVE",
"264 302 CURVE",
"264 294 OFFCURVE",
"264 285 OFFCURVE",
"257 285 CURVE",
"253 285 OFFCURVE"
);
},
{
closed = 1;
nodes = (
"581 358 OFFCURVE",
"599 358 CURVE",
"599 358 OFFCURVE",
"608 358 OFFCURVE",
"608 349 CURVE",
"608 333 OFFCURVE",
"608 317 OFFCURVE",
"608 302 CURVE",
"608 294 OFFCURVE",
"599 285 OFFCURVE",
"599 285 CURVE",
"567 285 OFFCURVE",
"544 285 OFFCURVE",
"520 285 CURVE",
"512 285 OFFCURVE",
"512 294 OFFCURVE",
"512 294 CURVE",
"512 317 OFFCURVE",
"512 333 OFFCURVE",
"512 349 CURVE",
"512 358 OFFCURVE",
"512 358 OFFCURVE",
"520 358 CURVE",
"530 358 OFFCURVE"
);
},
{
closed = 1;
nodes = (
"363 413 OFFCURVE",
"352 413 CURVE",
"344 413 OFFCURVE",
"344 413 OFFCURVE",
"344 420 CURVE",
"344 437 OFFCURVE",
"344 453 OFFCURVE",
"344 469 CURVE",
"344 477 OFFCURVE",
"344 477 OFFCURVE",
"352 477 CURVE",
"376 477 OFFCURVE",
"400 477 OFFCURVE",
"424 477 CURVE",
"432 477 OFFCURVE",
"439 477 OFFCURVE",
"439 469 CURVE",
"439 453 OFFCURVE",
"439 437 OFFCURVE",
"439 420 CURVE",
"439 413 OFFCURVE",
"432 413 OFFCURVE",
"424 413 CURVE",
"419 413 OFFCURVE"
);
},
{
closed = 1;
nodes = (
"416 358 OFFCURVE",
"424 358 CURVE",
"432 358 OFFCURVE",
"439 358 OFFCURVE",
"439 349 CURVE",
"439 333 OFFCURVE",
"439 317 OFFCURVE",
"439 302 CURVE",
"439 294 OFFCURVE",
"432 285 OFFCURVE",
"424 285 CURVE",
"400 285 OFFCURVE",
"376 285 OFFCURVE",
"352 285 CURVE",
"344 285 OFFCURVE",
"344 294 OFFCURVE",
"344 302 CURVE",
"344 317 OFFCURVE",
"344 333 OFFCURVE",
"344 349 CURVE",
"344 358 OFFCURVE",
"344 358 OFFCURVE",
"352 358 CURVE",
"359 358 OFFCURVE"
);
},
{
closed = 1;
nodes = (
"360 165 OFFCURVE",
"352 165 CURVE",
"344 165 OFFCURVE",
"344 174 OFFCURVE",
"344 174 CURVE",
"344 197 OFFCURVE",
"344 214 OFFCURVE",
"344 230 CURVE",
"344 238 OFFCURVE",
"344 238 OFFCURVE",
"352 238 CURVE",
"376 238 OFFCURVE",
"400 238 OFFCURVE",
"424 238 CURVE",
"432 238 OFFCURVE",
"439 238 OFFCURVE",
"439 230 CURVE",
"439 214 OFFCURVE",
"439 197 OFFCURVE",
"439 174 CURVE",
"439 174 OFFCURVE",
"432 165 OFFCURVE",
"424 165 CURVE",
"416 165 OFFCURVE"
);
}
);
width = 775;
}
);
unicode = E017;
},
{
glyphname = uniE018;
lastChange = "2018-08-30 12:40:53 +0000";
layers = (
{
layerId = "4E71560D-37DE-4538-9E60-5090AC0C42A9";
paths = (
{
closed = 1;
nodes = (
"412 386 LINE",
"412 397 OFFCURVE",
"412 413 OFFCURVE",
"412 425 CURVE",
"412 433 OFFCURVE",
"416 437 OFFCURVE",
"424 437 CURVE",
"440 437 OFFCURVE",
"456 437 OFFCURVE",
"467 437 CURVE",
"478 437 OFFCURVE",
"481 433 OFFCURVE",
"481 425 CURVE",
"481 397 OFFCURVE",
"481 374 OFFCURVE",
"481 346 CURVE",
"481 331 OFFCURVE",
"481 331 OFFCURVE",
"495 331 CURVE",
"523 331 OFFCURVE",
"546 331 OFFCURVE",
"574 331 CURVE",
"582 331 OFFCURVE",
"585 328 OFFCURVE",
"585 319 CURVE",
"585 303 OFFCURVE",
"585 287 OFFCURVE",
"585 275 CURVE",
"585 267 OFFCURVE",
"582 264 OFFCURVE",
"574 264 CURVE",
"546 264 OFFCURVE",
"523 264 OFFCURVE",
"495 264 CURVE",
"481 264 OFFCURVE",
"481 264 OFFCURVE",
"481 252 CURVE",
"481 224 OFFCURVE",
"481 197 OFFCURVE",
"481 169 CURVE",
"481 161 OFFCURVE",
"478 157 OFFCURVE",
"467 157 CURVE",
"452 157 OFFCURVE",
"440 157 OFFCURVE",
"424 157 CURVE",
"416 157 OFFCURVE",
"412 161 OFFCURVE",
"412 169 CURVE",
"412 197 OFFCURVE",
"412 224 OFFCURVE",
"412 252 CURVE",
"412 264 OFFCURVE",
"412 264 OFFCURVE",
"401 264 CURVE",
"373 264 OFFCURVE",
"349 264 OFFCURVE",
"322 264 CURVE",
"313 264 OFFCURVE",
"310 268 OFFCURVE",
"310 275 CURVE",
"310 291 OFFCURVE",
"310 307 OFFCURVE",
"310 319 CURVE",
"310 328 OFFCURVE",
"313 331 OFFCURVE",
"322 331 CURVE",
"349 331 OFFCURVE",
"373 331 OFFCURVE",
"401 331 CURVE",
"412 331 OFFCURVE",
"412 331 OFFCURVE",
"412 346 CURVE"
);
},
{
closed = 1;
nodes = (
"684 504 LINE",
"684 519 OFFCURVE",
"668 535 OFFCURVE",
"652 535 CURVE",
"243 535 LINE",
"223 535 OFFCURVE",
"212 519 OFFCURVE",
"212 504 CURVE",
"212 94 LINE",
"212 75 OFFCURVE",
"223 63 OFFCURVE",
"243 63 CURVE",
"652 63 LINE",
"668 63 OFFCURVE",
"684 75 OFFCURVE",
"684 94 CURVE"
);
},
{
closed = 1;
nodes = (
"747 43 OFFCURVE",
"704 0 OFFCURVE",
"652 0 CURVE",
"243 0 LINE",
"192 0 OFFCURVE",
"149 43 OFFCURVE",
"149 94 CURVE",
"149 504 LINE",
"149 555 OFFCURVE",
"192 598 OFFCURVE",
"243 598 CURVE",
"652 598 LINE",
"704 598 OFFCURVE",
"747 555 OFFCURVE",
"747 504 CURVE",
"747 94 LINE"
);
},
{
closed = 1;
nodes = (
"101 181 OFFCURVE",
"90 165 OFFCURVE",
"70 165 CURVE",
"54 165 OFFCURVE",
"38 181 OFFCURVE",
"38 197 CURVE",
"38 606 LINE",
"38 661 OFFCURVE",
"82 700 OFFCURVE",
"133 700 CURVE",
"542 700 LINE",
"562 700 OFFCURVE",
"574 689 OFFCURVE",
"574 669 CURVE",
"574 653 OFFCURVE",
"562 638 OFFCURVE",
"542 638 CURVE",
"133 638 LINE",
"117 638 OFFCURVE",
"101 626 OFFCURVE",
"101 606 CURVE",
"101 197 LINE"
);
}
);
width = 775;
}
);
unicode = E018;
},
{
glyphname = uniE019;
lastChange = "2018-08-30 12:40:57 +0000";
layers = (
{
layerId = "4E71560D-37DE-4538-9E60-5090AC0C42A9";
paths = (
{
closed = 1;
nodes = (
"534 412 OFFCURVE",
"532 399 OFFCURVE",
"532 386 CURVE",
"535 363 OFFCURVE",
"525 360 OFFCURVE",
"508 360 CURVE",
"439 363 OFFCURVE",
"373 383 OFFCURVE",
"310 416 CURVE",
"204 472 OFFCURVE",
"132 561 OFFCURVE",
"79 667 CURVE",
"65 697 OFFCURVE",
"49 703 OFFCURVE",
"26 697 CURVE",
"3 690 OFFCURVE",
"-4 674 OFFCURVE",
"3 641 CURVE",
"6 608 OFFCURVE",
"13 575 OFFCURVE",
"19 545 CURVE",
"52 416 OFFCURVE",
"118 307 OFFCURVE",
"231 231 CURVE",
"313 178 OFFCURVE",
"406 151 OFFCURVE",
"508 145 CURVE",
"525 145 OFFCURVE",
"535 138 OFFCURVE",
"532 118 CURVE",
"532 92 OFFCURVE",
"535 62 OFFCURVE",
"532 36 CURVE",
"532 19 OFFCURVE",
"538 3 OFFCURVE",
"555 -4 CURVE",
"571 -11 OFFCURVE",
"588 -7 OFFCURVE",
"601 6 CURVE",
"674 79 OFFCURVE",
"746 151 OFFCURVE",
"819 221 CURVE",
"839 244 OFFCURVE",
"839 264 OFFCURVE",
"819 284 CURVE",
"796 307 OFFCURVE",
"773 330 OFFCURVE",
"753 350 CURVE",
"703 399 OFFCURVE",
"654 446 OFFCURVE",
"608 495 CURVE",
"591 508 OFFCURVE",
"578 522 OFFCURVE",
"558 512 CURVE",
"538 502 OFFCURVE",
"532 485 OFFCURVE",
"532 465 CURVE",
"535 452 OFFCURVE",
"531 439 OFFCURVE",
"532 429 CURVE SMOOTH"
);
}
);
width = 834;
}
);
unicode = E019;
},
{
glyphname = uniE020;
lastChange = "2018-08-30 12:41:00 +0000";
layers = (
{
layerId = "4E71560D-37DE-4538-9E60-5090AC0C42A9";
paths = (
{
closed = 1;
nodes = (
"806 700 LINE",
"841 700 OFFCURVE",
"876 665 OFFCURVE",
"876 630 CURVE",
"876 630 LINE",
"876 590 OFFCURVE",
"841 560 OFFCURVE",
"806 560 CURVE",
"70 560 LINE",
"35 560 OFFCURVE",
"0 590 OFFCURVE",
"0 630 CURVE",
"0 630 LINE",
"0 665 OFFCURVE",
"35 700 OFFCURVE",
"70 700 CURVE"
);
},
{
closed = 1;
nodes = (
"806 420 LINE",
"841 420 OFFCURVE",
"876 385 OFFCURVE",
"876 350 CURVE",
"876 350 LINE",
"876 310 OFFCURVE",
"841 280 OFFCURVE",
"806 280 CURVE",
"70 280 LINE",
"35 280 OFFCURVE",
"0 310 OFFCURVE",
"0 350 CURVE",
"0 350 LINE",
"0 385 OFFCURVE",
"35 420 OFFCURVE",
"70 420 CURVE"
);
},
{
closed = 1;
nodes = (
"806 139 LINE",
"841 139 OFFCURVE",
"876 104 OFFCURVE",
"876 69 CURVE",
"876 69 LINE",
"876 29 OFFCURVE",
"841 -1 OFFCURVE",
"806 -1 CURVE",
"70 -1 LINE",
"35 -1 OFFCURVE",
"0 29 OFFCURVE",
"0 69 CURVE",
"0 69 LINE",
"0 104 OFFCURVE",
"35 139 OFFCURVE",
"70 139 CURVE"
);
}
);
width = 876;
}
);
unicode = E020;
},
{
glyphname = uniE021;
lastChange = "2018-08-30 12:41:03 +0000";
layers = (
{
layerId = "4E71560D-37DE-4538-9E60-5090AC0C42A9";
paths = (
{
closed = 1;
nodes = (
"859 207 LINE",
"886 182 OFFCURVE",
"886 141 OFFCURVE",
"859 114 CURVE",
"834 89 OFFCURVE",
"791 89 OFFCURVE",
"766 114 CURVE",
"441 440 LINE",
"113 114 LINE",
"88 89 OFFCURVE",
"45 89 OFFCURVE",
"20 114 CURVE",
"-6 141 OFFCURVE",
"-6 182 OFFCURVE",
"20 207 CURVE",
"393 580 LINE",
"418 607 OFFCURVE",
"461 607 OFFCURVE",
"486 580 CURVE"
);
}
);
width = 879;
}
);
unicode = E021;
},
{
glyphname = uniE022;
lastChange = "2018-08-30 12:41:06 +0000";
layers = (
{
layerId = "4E71560D-37DE-4538-9E60-5090AC0C42A9";
paths = (
{
closed = 1;
nodes = (
"440 500 LINE",
"223 256 LINE",
"0 500 LINE",
"223 500 LINE"
);
}
);
width = 440;
}
);
unicode = E022;
},
{
glyphname = uniE023;
lastChange = "2018-08-30 12:41:08 +0000";
layers = (
{
layerId = "4E71560D-37DE-4538-9E60-5090AC0C42A9";
paths = (
{
closed = 1;
nodes = (
"400 530 LINE",
"440 500 LINE",
"223 256 LINE",
"0 500 LINE",
"40 530 LINE",
"223 331 LINE"
);
}
);
width = 440;
}
);
unicode = E023;
},
{
glyphname = uniE024;
lastChange = "2018-08-30 12:41:11 +0000";
layers = (
{
layerId = "4E71560D-37DE-4538-9E60-5090AC0C42A9";
paths = (
{
closed = 1;
nodes = (
"0 141 LINE",
"204 339 LINE",
"3 541 LINE"
);
}
);
width = 204;
}
);
unicode = E024;
},
{
glyphname = uniE025;
lastChange = "2018-09-03 13:11:09 +0000";
layers = (
{
layerId = "4E71560D-37DE-4538-9E60-5090AC0C42A9";
paths = (
{
closed = 1;
nodes = (
"390 443 OFFCURVE",
"383 438 OFFCURVE",
"374 436 CURVE",
"83 394 LINE",
"294 188 LINE",
"300 182 OFFCURVE",
"303 173 OFFCURVE",
"301 165 CURVE",
"251 -126 LINE",
"512 12 LINE",
"520 16 OFFCURVE",
"529 16 OFFCURVE",
"537 12 CURVE",
"798 -126 LINE",
"748 165 LINE",
"746 173 OFFCURVE",
"749 182 OFFCURVE",
"755 188 CURVE",
"966 394 LINE",
"675 436 LINE",
"666 438 OFFCURVE",
"659 443 OFFCURVE",
"655 451 CURVE",
"525 715 LINE",
"394 451 LINE"
);
},
{
closed = 1;
nodes = (
"511 805 OFFCURVE",
"538 805 OFFCURVE",
"548 786 CURVE",
"696 486 LINE",
"1026 438 LINE",
"1048 435 OFFCURVE",
"1056 409 OFFCURVE",
"1041 393 CURVE",
"802 160 LINE",
"858 -169 LINE",
"862 -190 OFFCURVE",
"839 -207 OFFCURVE",
"820 -197 CURVE",
"525 -41 LINE",
"229 -197 LINE",
"210 -207 OFFCURVE",
"187 -190 OFFCURVE",
"191 -169 CURVE",
"247 160 LINE",
"8 393 LINE",
"-7 409 OFFCURVE",
"1 435 OFFCURVE",
"23 438 CURVE",
"353 486 LINE",
"501 786 LINE"
);
}
);
width = 1049;
}
);
unicode = E025;
},
{
glyphname = uniE026;
lastChange = "2018-09-03 13:12:13 +0000";
layers = (
{
layerId = "4E71560D-37DE-4538-9E60-5090AC0C42A9";
paths = (
{
closed = 1;
nodes = (
"525 715 LINE",
"655 451 LINE",
"659 443 OFFCURVE",
"666 438 OFFCURVE",
"675 436 CURVE",
"966 394 LINE",
"755 188 LINE",
"749 182 OFFCURVE",
"746 173 OFFCURVE",
"748 165 CURVE",
"798 -126 LINE",
"537 12 LINE",
"529 16 OFFCURVE",
"520 16 OFFCURVE",
"512 12 CURVE",
"251 -126 LINE",
"301 165 LINE",
"303 173 OFFCURVE",
"300 182 OFFCURVE",
"294 188 CURVE",
"83 394 LINE",
"374 436 LINE",
"383 438 OFFCURVE",
"390 443 OFFCURVE",
"394 451 CURVE"
);
}
);
width = 1049;
}
);
unicode = E026;
},
{
glyphname = uniE027;
lastChange = "2018-09-03 13:13:57 +0000";
layers = (
{
layerId = "4E71560D-37DE-4538-9E60-5090AC0C42A9";
paths = (
{
closed = 1;
nodes = (
"525 715 LINE",
"525 15 LINE",
"520 15 OFFCURVE",
"516 14 OFFCURVE",
"512 12 CURVE",
"251 -126 LINE",
"301 165 LINE",
"303 173 OFFCURVE",
"300 182 OFFCURVE",
"294 188 CURVE",
"83 394 LINE",
"374 436 LINE",
"383 438 OFFCURVE",
"390 443 OFFCURVE",
"394 451 CURVE"
);
}
);
width = 1049;
}
);
unicode = E027;
},
{
glyphname = uniE028;
lastChange = "2018-11-13 13:00:32 +0000";
layers = (
{
layerId = "4E71560D-37DE-4538-9E60-5090AC0C42A9";
paths = (
{
closed = 1;
nodes = (
"341 584 OFFCURVE",
"350 584 OFFCURVE",
"350 584 CURVE",
"377 591 OFFCURVE",
"404 591 OFFCURVE",
"431 584 CURVE",
"448 574 OFFCURVE",
"448 584 OFFCURVE",
"466 591 CURVE",
"495 619 OFFCURVE",
"521 656 OFFCURVE",
"558 684 CURVE",
"585 720 OFFCURVE",
"630 720 OFFCURVE",
"665 702 CURVE",
"720 665 OFFCURVE",
"727 601 OFFCURVE",
"684 548 CURVE",
"630 495 OFFCURVE",
"576 440 OFFCURVE",
"511 377 CURVE",
"466 331 OFFCURVE",
"412 331 OFFCURVE",
"368 377 CURVE",
"350 404 OFFCURVE",
"322 404 OFFCURVE",
"304 384 CURVE",
"286 366 OFFCURVE",
"286 340 OFFCURVE",
"314 312 CURVE",
"377 241 OFFCURVE",
"495 241 OFFCURVE",
"566 312 CURVE",
"630 366 OFFCURVE",
"692 430 OFFCURVE",
"755 495 CURVE",
"802 548 OFFCURVE",
"810 619 OFFCURVE",
"784 692 CURVE",
"738 810 OFFCURVE",
"585 835 OFFCURVE",
"495 746 CURVE",
"440 702 OFFCURVE",
"394 648 OFFCURVE",
"350 591 CURVE",
"341 591 OFFCURVE",
"341 591 OFFCURVE",
"333 584 CURVE"
);
},
{
closed = 1;
nodes = (
"458 214 OFFCURVE",
"458 214 OFFCURVE",
"458 214 CURVE",
"431 204 OFFCURVE",
"404 204 OFFCURVE",
"377 223 CURVE",
"358 223 OFFCURVE",
"350 223 OFFCURVE",
"341 214 CURVE",
"314 178 OFFCURVE",
"279 151 OFFCURVE",
"251 114 CURVE",
"214 87 OFFCURVE",
"169 79 OFFCURVE",
"133 105 CURVE",
"89 133 OFFCURVE",
"79 204 OFFCURVE",
"125 251 CURVE",
"180 304 OFFCURVE",
"233 366 OFFCURVE",
"296 421 CURVE",
"341 466 OFFCURVE",
"387 466 OFFCURVE",
"431 421 CURVE",
"458 404 OFFCURVE",
"477 404 OFFCURVE",
"495 421 CURVE",
"521 440 OFFCURVE",
"511 458 OFFCURVE",
"495 485 CURVE",
"431 556 OFFCURVE",
"322 566 OFFCURVE",
"241 495 CURVE",
"180 430 OFFCURVE",
"114 366 OFFCURVE",
"53 304 CURVE",
"-3 251 OFFCURVE",
"-11 178 OFFCURVE",
"16 114 CURVE",
"72 -3 OFFCURVE",
"214 -40 OFFCURVE",
"304 51 CURVE",
"358 105 OFFCURVE",
"412 151 OFFCURVE",
"458 204 CURVE",
"466 204 OFFCURVE",
"466 214 OFFCURVE",
"466 214 CURVE SMOOTH"
);
}
);
width = 800;
}
);
unicode = E028;
},
{
glyphname = uniE029;
lastChange = "2018-09-19 19:09:19 +0000";
layers = (
{
layerId = "4E71560D-37DE-4538-9E60-5090AC0C42A9";
paths = (
{
closed = 1;
nodes = (
"450 233 LINE",
"450 141 OFFCURVE",
"375 67 OFFCURVE",
"283 67 CURVE",
"191 67 OFFCURVE",
"117 141 OFFCURVE",
"117 233 CURVE",
"117 633 LINE",
"117 688 OFFCURVE",
"162 733 OFFCURVE",
"217 733 CURVE",
"272 733 OFFCURVE",
"317 688 OFFCURVE",
"317 633 CURVE",
"317 333 LINE",
"317 315 OFFCURVE",
"302 300 OFFCURVE",
"283 300 CURVE",
"265 300 OFFCURVE",
"250 315 OFFCURVE",
"250 333 CURVE",
"250 600 LINE",
"183 600 LINE",
"183 333 LINE",
"183 278 OFFCURVE",
"228 233 OFFCURVE",
"283 233 CURVE",
"339 233 OFFCURVE",
"383 278 OFFCURVE",
"383 333 CURVE",
"383 633 LINE",
"383 725 OFFCURVE",
"309 800 OFFCURVE",
"217 800 CURVE",
"125 800 OFFCURVE",
"50 725 OFFCURVE",
"50 633 CURVE",
"50 233 LINE",
"50 104 OFFCURVE",
"154 0 OFFCURVE",
"283 0 CURVE",
"412 0 OFFCURVE",
"517 104 OFFCURVE",
"517 233 CURVE",
"517 700 LINE",
"450 700 LINE"
);
}
);
width = 567;
}
);
unicode = E029;
},
{
glyphname = uniE030;
lastChange = "2018-09-21 12:23:30 +0000";
layers = (
{
layerId = "4E71560D-37DE-4538-9E60-5090AC0C42A9";
paths = (
{
closed = 1;
nodes = (
"5 0 LINE",
"5 800 LINE",
"472 800 LINE",
"672 600 LINE",
"672 0 LINE"
);
},
{
closed = 1;
nodes = (
"38 767 LINE",
"38 33 LINE",
"638 33 LINE",
"638 567 LINE",
"438 567 LINE",
"438 767 LINE"
);
},
{
closed = 1;
nodes = (
"538 233 LINE",
"138 233 LINE",
"138 267 LINE",
"538 267 LINE"
);
},
{
closed = 1;
nodes = (
"538 333 LINE",
"138 333 LINE",
"138 367 LINE",
"538 367 LINE"
);
},
{
closed = 1;
nodes = (
"538 433 LINE",
"138 433 LINE",
"138 467 LINE",
"538 467 LINE"
);
},
{
closed = 1;
nodes = (
"625 600 LINE",
"472 753 LINE",
"472 600 LINE"
);
}
);
width = 677;
}
);
unicode = E030;
},
{
glyphname = uniE031;
lastChange = "2018-09-21 12:25:21 +0000";
layers = (
{
layerId = "4E71560D-37DE-4538-9E60-5090AC0C42A9";
paths = (
{
closed = 1;
nodes = (
"558 527 LINE",
"569 510 OFFCURVE",
"588 500 OFFCURVE",
"608 500 CURVE",
"725 500 LINE",
"725 0 LINE",
"5 0 LINE",
"5 500 LINE",
"183 500 LINE",
"203 500 OFFCURVE",
"222 510 OFFCURVE",
"233 527 CURVE",
"275 590 LINE",
"515 590 LINE"
);
},
{
closed = 1;
nodes = (
"577 470 OFFCURVE",
"549 485 OFFCURVE",
"533 510 CURVE",
"499 560 LINE",
"292 560 LINE",
"258 510 LINE",
"242 485 OFFCURVE",
"214 470 OFFCURVE",
"183 470 CURVE",
"35 470 LINE",
"35 30 LINE",
"695 30 LINE",
"695 470 LINE",
"608 470 LINE"
);
},
{
closed = 1;
nodes = (
"495 440 OFFCURVE",
"576 359 OFFCURVE",
"576 260 CURVE",
"576 161 OFFCURVE",
"495 80 OFFCURVE",
"396 80 CURVE",
"297 80 OFFCURVE",
"216 161 OFFCURVE",
"216 260 CURVE",
"216 359 OFFCURVE",
"297 440 OFFCURVE",
"396 440 CURVE"
);
},
{
closed = 1;
nodes = (
"313 410 OFFCURVE",
"246 343 OFFCURVE",
"246 260 CURVE",
"246 177 OFFCURVE",
"313 110 OFFCURVE",
"396 110 CURVE",
"479 110 OFFCURVE",
"546 177 OFFCURVE",
"546 260 CURVE",
"546 343 OFFCURVE",
"479 410 OFFCURVE",
"396 410 CURVE"
);
},
{
closed = 1;
nodes = (
"446 350 OFFCURVE",
"486 310 OFFCURVE",
"486 260 CURVE",
"486 210 OFFCURVE",
"446 170 OFFCURVE",
"396 170 CURVE",
"346 170 OFFCURVE",
"306 210 OFFCURVE",
"306 260 CURVE",
"306 310 OFFCURVE",
"346 350 OFFCURVE",
"396 350 CURVE"
);
},
{
closed = 1;
nodes = (
"363 320 OFFCURVE",
"336 293 OFFCURVE",
"336 260 CURVE",
"336 227 OFFCURVE",
"363 200 OFFCURVE",
"396 200 CURVE",
"429 200 OFFCURVE",
"456 227 OFFCURVE",
"456 260 CURVE",
"456 293 OFFCURVE",
"429 320 OFFCURVE",
"396 320 CURVE"
);
},
{
closed = 1;
nodes = (
"156 397 OFFCURVE",
"143 410 OFFCURVE",
"126 410 CURVE",
"109 410 OFFCURVE",
"96 397 OFFCURVE",
"96 380 CURVE",
"96 363 OFFCURVE",
"109 350 OFFCURVE",
"126 350 CURVE",
"143 350 OFFCURVE",
"156 363 OFFCURVE",
"156 380 CURVE"
);
},
{
closed = 1;
nodes = (
"156 560 LINE",
"156 530 LINE",
"66 530 LINE",
"66 560 LINE"
);
}
);
width = 730;
}
);
unicode = E031;
},
{
glyphname = uniE032;
lastChange = "2018-09-24 12:45:27 +0000";
layers = (
{
layerId = "4E71560D-37DE-4538-9E60-5090AC0C42A9";
paths = (
{
closed = 1;
nodes = (
"746 662 LINE",
"683 687 OFFCURVE",
"614 700 OFFCURVE",
"543 700 CURVE",
"358 700 OFFCURVE",
"191 608 OFFCURVE",
"77 462 CURVE",
"10 528 LINE",
"140 695 OFFCURVE",
"331 800 OFFCURVE",
"543 800 CURVE",
"642 800 OFFCURVE",
"736 777 OFFCURVE",
"821 736 CURVE",
"884 800 LINE",
"944 740 LINE",
"202 -3 LINE",
"142 57 LINE",
"313 229 LINE",
"277 264 LINE",
"328 330 OFFCURVE",
"398 376 OFFCURVE",
"477 393 CURVE",
"582 498 LINE",
"569 499 OFFCURVE",
"556 500 OFFCURVE",
"543 500 CURVE",
"410 500 OFFCURVE",
"291 434 OFFCURVE",
"210 330 CURVE",
"143 396 LINE",
"241 521 OFFCURVE",
"384 600 OFFCURVE",
"543 600 CURVE",
"586 600 OFFCURVE",
"628 594 OFFCURVE",
"668 583 CURVE"
);
},
{
closed = 1;
nodes = (
"855 492 OFFCURVE",
"903 448 OFFCURVE",
"943 396 CURVE",
"876 330 LINE",
"836 382 OFFCURVE",
"786 424 OFFCURVE",
"729 454 CURVE",
"801 525 LINE"
);
},
{
closed = 1;
nodes = (
"716 357 OFFCURVE",
"769 317 OFFCURVE",
"810 264 CURVE",
"744 198 LINE",
"701 252 OFFCURVE",
"641 290 OFFCURVE",
"574 298 CURVE",
"655 380 LINE"
);
},
{
closed = 1;
nodes = (
"990 625 OFFCURVE",
"1036 580 OFFCURVE",
"1077 528 CURVE",
"1010 462 LINE",
"969 514 OFFCURVE",
"922 558 OFFCURVE",
"870 595 CURVE",
"940 664 LINE"
);
},
{
closed = 1;
nodes = (
"596 200 OFFCURVE",
"643 173 OFFCURVE",
"676 132 CURVE",
"543 0 LINE",
"410 132 LINE",
"443 173 OFFCURVE",
"490 200 OFFCURVE",
"543 200 CURVE"
);
}
);
width = 1087;
}
);
unicode = E032;
},
{
glyphname = uniE033;
lastChange = "2018-09-24 12:46:44 +0000";
layers = (
{
layerId = "4E71560D-37DE-4538-9E60-5090AC0C42A9";
paths = (
{
closed = 1;
nodes = (
"143 396 LINE",
"241 521 OFFCURVE",
"384 600 OFFCURVE",
"543 600 CURVE",
"703 600 OFFCURVE",
"845 521 OFFCURVE",
"943 396 CURVE",
"876 330 LINE",
"795 434 OFFCURVE",
"676 500 OFFCURVE",
"543 500 CURVE",
"410 500 OFFCURVE",
"291 434 OFFCURVE",
"210 330 CURVE"
);
},
{
closed = 1;
nodes = (
"464 300 OFFCURVE",
"393 260 OFFCURVE",
"344 198 CURVE",
"277 264 LINE",
"342 347 OFFCURVE",
"437 400 OFFCURVE",
"544 400 CURVE",
"650 400 OFFCURVE",
"745 347 OFFCURVE",
"810 264 CURVE",
"744 198 LINE",
"695 260 OFFCURVE",
"623 300 OFFCURVE",
"544 300 CURVE"
);
},
{
closed = 1;
nodes = (
"596 200 OFFCURVE",
"643 173 OFFCURVE",
"676 132 CURVE",
"543 0 LINE",
"410 132 LINE",
"443 173 OFFCURVE",
"490 200 OFFCURVE",
"543 200 CURVE"
);
},
{
closed = 1;
nodes = (
"358 700 OFFCURVE",
"191 608 OFFCURVE",
"77 462 CURVE",
"10 528 LINE",
"140 695 OFFCURVE",
"331 800 OFFCURVE",
"543 800 CURVE",
"756 800 OFFCURVE",
"946 695 OFFCURVE",
"1077 528 CURVE",
"1010 462 LINE",
"896 608 OFFCURVE",
"729 700 OFFCURVE",
"543 700 CURVE"
);
}
);
width = 1087;
}
);
unicode = E033;
},
{
glyphname = uniE034;
lastChange = "2019-01-14 07:00:51 +0000";
layers = (
{
layerId = "4E71560D-37DE-4538-9E60-5090AC0C42A9";
paths = (
{
closed = 1;
nodes = (
"730 582 OFFCURVE",
"583 730 OFFCURVE",
"400 730 CURVE",
"217 730 OFFCURVE",
"69 582 OFFCURVE",
"69 400 CURVE",
"69 217 OFFCURVE",
"217 69 OFFCURVE",
"400 69 CURVE",
"583 69 OFFCURVE",
"730 217 OFFCURVE",
"730 400 CURVE"
);
},
{
closed = 1;
nodes = (
"800 179 OFFCURVE",
"621 0 OFFCURVE",
"400 0 CURVE",
"179 0 OFFCURVE",
"0 179 OFFCURVE",
"0 400 CURVE",
"0 621 OFFCURVE",
"179 800 OFFCURVE",
"400 800 CURVE",
"621 800 OFFCURVE",
"800 621 OFFCURVE",
"800 400 CURVE"
);
},
{
closed = 1;
nodes = (
"417 369 LINE",
"567 369 LINE",
"575 369 OFFCURVE",
"581 373 OFFCURVE",
"582 381 CURVE",
"582 413 LINE",
"581 420 OFFCURVE",
"575 425 OFFCURVE",
"567 425 CURVE",
"417 425 LINE",
"418 625 LINE",
"417 630 OFFCURVE",
"414 634 OFFCURVE",
"409 635 CURVE",
"380 635 LINE",
"375 634 OFFCURVE",
"371 630 OFFCURVE",
"371 625 CURVE",
"371 424 LINE",
"375 381 LINE",
"380 373 LINE"
);
}
);
width = 800;
}
);
unicode = E034;
},
{
glyphname = uniE035;
lastChange = "2018-10-11 06:50:17 +0000";
layers = (
{
layerId = "4E71560D-37DE-4538-9E60-5090AC0C42A9";
paths = (
{
closed = 1;
nodes = (
"245 305 LINE",
"483 555 LINE",
"564 622 LINE",
"484 617 LINE",
"358 617 LINE",
"358 700 LINE",
"690 700 LINE",
"690 372 LINE",
"607 372 LINE",
"607 508 LINE",
"612 588 LINE",
"554 505 LINE",
"311 244 LINE"
);
},
{
closed = 1;
nodes = (
"439 550 LINE",
"94 550 LINE",
"43 550 OFFCURVE",
"0 507 OFFCURVE",
"0 456 CURVE",
"0 94 LINE",
"0 43 OFFCURVE",
"43 0 OFFCURVE",
"94 0 CURVE",
"453 0 LINE",
"505 0 OFFCURVE",
"548 43 OFFCURVE",
"548 94 CURVE",
"548 456 LINE",
"485 393 LINE",
"485 94 LINE",
"485 75 OFFCURVE",
"469 63 OFFCURVE",
"453 63 CURVE",
"94 63 LINE",
"74 63 OFFCURVE",
"63 75 OFFCURVE",
"63 94 CURVE",
"63 456 LINE",
"63 471 OFFCURVE",
"74 487 OFFCURVE",
"94 487 CURVE",
"380 487 LINE"
);
}
);
width = 670;
}
);
note = uniE035;
unicode = E035;
},
{
glyphname = uniE036;
lastChange = "2018-10-11 06:45:26 +0000";
layers = (
{
layerId = "4E71560D-37DE-4538-9E60-5090AC0C42A9";
paths = (
{
closed = 1;
nodes = (
"457 429 LINE",
"457 444 OFFCURVE",
"441 460 OFFCURVE",
"425 460 CURVE",
"94 460 LINE",
"74 460 OFFCURVE",
"63 444 OFFCURVE",
"63 429 CURVE",
"63 94 LINE",
"63 75 OFFCURVE",
"74 63 OFFCURVE",
"94 63 CURVE",
"425 63 LINE",
"441 63 OFFCURVE",
"457 75 OFFCURVE",
"457 94 CURVE"
);
},
{
closed = 1;
nodes = (
"520 43 OFFCURVE",
"477 0 OFFCURVE",
"425 0 CURVE",
"94 0 LINE",
"43 0 OFFCURVE",
"0 43 OFFCURVE",
"0 94 CURVE",
"0 429 LINE",
"0 480 OFFCURVE",
"43 523 OFFCURVE",
"94 523 CURVE",
"425 523 LINE",
"477 523 OFFCURVE",
"520 480 OFFCURVE",
"520 429 CURVE",
"520 94 LINE"
);
},
{
closed = 1;
nodes = (
"544 240 LINE",
"598 240 LINE",
"614 240 OFFCURVE",
"630 252 OFFCURVE",
"630 271 CURVE",
"630 606 LINE",
"630 621 OFFCURVE",
"614 637 OFFCURVE",
"598 637 CURVE",
"267 637 LINE",
"247 637 OFFCURVE",
"236 621 OFFCURVE",
"236 606 CURVE",
"236 549 LINE",
"173 549 LINE",
"173 606 LINE",
"173 657 OFFCURVE",
"216 700 OFFCURVE",
"267 700 CURVE",
"598 700 LINE",
"650 700 OFFCURVE",
"693 657 OFFCURVE",
"693 606 CURVE",
"693 271 LINE",
"693 220 OFFCURVE",
"650 177 OFFCURVE",
"598 177 CURVE",
"544 177 LINE"
);
}
);
width = 659;
}
);
note = uniE036;
unicode = E036;
},
{
glyphname = uniE037;
lastChange = "2018-10-11 06:49:07 +0000";
layers = (
{
layerId = "4E71560D-37DE-4538-9E60-5090AC0C42A9";
paths = (
{
closed = 1;
nodes = (
"316 323 LINE",
"316 539 LINE",
"401 539 LINE",
"399 323 LINE",
"393 266 LINE",
"437 323 LINE",
"529 409 LINE",
"548 388 OFFCURVE",
"565 370 OFFCURVE",
"585 350 CURVE",
"355 130 LINE",
"132 360 LINE",
"190 418 LINE",
"280 323 LINE",
"322 266 LINE"
);
},
{
closed = 1;
nodes = (
"645 606 LINE",
"645 621 OFFCURVE",
"629 637 OFFCURVE",
"613 637 CURVE",
"94 637 LINE",
"74 637 OFFCURVE",
"63 621 OFFCURVE",
"63 606 CURVE",
"63 94 LINE",
"63 75 OFFCURVE",
"74 63 OFFCURVE",
"94 63 CURVE",
"613 63 LINE",
"629 63 OFFCURVE",
"645 75 OFFCURVE",
"645 94 CURVE"
);
},
{
closed = 1;
nodes = (
"708 43 OFFCURVE",
"665 0 OFFCURVE",
"613 0 CURVE",
"94 0 LINE",
"43 0 OFFCURVE",
"0 43 OFFCURVE",
"0 94 CURVE",
"0 606 LINE",
"0 657 OFFCURVE",
"43 700 OFFCURVE",
"94 700 CURVE",
"613 700 LINE",
"665 700 OFFCURVE",
"708 657 OFFCURVE",
"708 606 CURVE",
"708 94 LINE"
);
}
);
width = 708;
}
);
note = uniE037;
unicode = E037;
},
{
glyphname = uniE038;
lastChange = "2018-10-22 11:25:10 +0000";
layers = (
{
layerId = "4E71560D-37DE-4538-9E60-5090AC0C42A9";
paths = (
{
closed = 1;
nodes = (
"374 674 OFFCURVE",
"392 691 OFFCURVE",
"393 714 CURVE",
"393 736 OFFCURVE",
"374 754 OFFCURVE",
"353 754 CURVE",
"331 754 OFFCURVE",
"312 736 OFFCURVE",
"312 714 CURVE",
"313 691 OFFCURVE",
"331 674 OFFCURVE",
"353 674 CURVE SMOOTH"
);
},
{
closed = 1;
nodes = (
"286 752 OFFCURVE",
"310 781 OFFCURVE",
"351 781 CURVE",
"392 782 OFFCURVE",
"416 756 OFFCURVE",
"421 700 CURVE",
"434 700 OFFCURVE",
"450 700 OFFCURVE",
"464 700 CURVE",
"475 700 OFFCURVE",
"487 700 OFFCURVE",
"498 700 CURVE",
"522 700 OFFCURVE",
"538 690 OFFCURVE",
"549 670 CURVE",
"553 662 OFFCURVE",
"558 659 OFFCURVE",
"566 659 CURVE",
"595 659 OFFCURVE",
"625 659 OFFCURVE",
"653 659 CURVE",
"687 659 OFFCURVE",
"704 645 OFFCURVE",
"704 612 CURVE",
"704 575 OFFCURVE",
"705 538 OFFCURVE",
"704 501 CURVE",
"703 494 OFFCURVE",
"698 485 OFFCURVE",
"693 480 CURVE",
"682 465 OFFCURVE",
"667 452 OFFCURVE",
"651 436 CURVE",
"650 445 OFFCURVE",
"650 451 OFFCURVE",
"650 457 CURVE",
"650 501 OFFCURVE",
"649 545 OFFCURVE",
"650 590 CURVE",
"650 601 OFFCURVE",
"646 606 OFFCURVE",
"633 605 CURVE",
"611 604 OFFCURVE",
"590 604 OFFCURVE",
"568 605 CURVE",
"559 605 OFFCURVE",
"554 602 OFFCURVE",
"554 593 CURVE",
"554 565 OFFCURVE",
"554 565 OFFCURVE",
"528 565 CURVE",
"408 565 OFFCURVE",
"288 565 OFFCURVE",
"168 565 CURVE",
"151 565 OFFCURVE",
"151 565 OFFCURVE",
"151 584 CURVE",
"151 605 OFFCURVE",
"151 605 OFFCURVE",
"129 605 CURVE",
"110 605 OFFCURVE",
"90 604 OFFCURVE",
"72 605 CURVE",
"59 606 OFFCURVE",
"55 601 OFFCURVE",
"56 590 CURVE",
"56 564 OFFCURVE",
"56 539 OFFCURVE",
"56 514 CURVE",
"56 -89 LINE",
"56 -109 OFFCURVE",
"56 -109 OFFCURVE",
"75 -109 CURVE",
"260 -109 OFFCURVE",
"445 -109 OFFCURVE",
"629 -109 CURVE",
"650 -109 OFFCURVE",
"650 -109 OFFCURVE",
"650 -89 CURVE",
"650 -10 OFFCURVE",
"650 69 OFFCURVE",
"649 148 CURVE",
"649 168 OFFCURVE",
"653 186 OFFCURVE",
"669 198 CURVE",
"681 207 OFFCURVE",
"689 217 OFFCURVE",
"703 229 CURVE",
"703 221 OFFCURVE",
"704 216 OFFCURVE",
"704 212 CURVE",
"704 93 OFFCURVE",
"704 -23 OFFCURVE",
"704 -141 CURVE",
"704 -175 OFFCURVE",
"688 -190 OFFCURVE",
"655 -190 CURVE",
"453 -190 OFFCURVE",
"252 -190 OFFCURVE",
"50 -190 CURVE",
"17 -190 OFFCURVE",
"0 -175 OFFCURVE",
"0 -141 CURVE",
"0 110 OFFCURVE",
"0 361 OFFCURVE",
"0 612 CURVE",
"0 644 OFFCURVE",
"18 658 OFFCURVE",
"50 659 CURVE",
"79 659 OFFCURVE",
"108 659 OFFCURVE",
"137 659 CURVE",
"147 659 OFFCURVE",
"151 661 OFFCURVE",
"156 670 CURVE",
"166 690 OFFCURVE",
"182 700 OFFCURVE",
"205 700 CURVE",
"231 701 OFFCURVE",
"256 700 OFFCURVE",
"284 700 CURVE"
);
},
{
closed = 1;
nodes = (
"474 129 OFFCURVE",
"470 135 OFFCURVE",
"471 138 CURVE",
"491 182 OFFCURVE",
"500 229 OFFCURVE",
"538 266 CURVE",
"630 353 OFFCURVE",
"719 444 OFFCURVE",
"810 535 CURVE",
"819 545 OFFCURVE",
"824 544 OFFCURVE",
"832 535 CURVE",
"847 519 OFFCURVE",
"864 501 OFFCURVE",
"880 487 CURVE",
"887 480 OFFCURVE",
"888 475 OFFCURVE",
"881 468 CURVE",
"782 369 OFFCURVE",
"685 271 OFFCURVE",
"586 172 CURVE",
"581 168 OFFCURVE",
"574 165 OFFCURVE",
"568 162 CURVE",
"542 151 OFFCURVE",
"515 141 OFFCURVE",
"489 129 CURVE",
"486 129 OFFCURVE",
"483 128 OFFCURVE",
"475 125 CURVE"
);
},
{
closed = 1;
nodes = (
"281 429 OFFCURVE",
"211 429 OFFCURVE",
"140 429 CURVE",
"120 429 OFFCURVE",
"120 429 OFFCURVE",
"120 448 CURVE",
"120 458 OFFCURVE",
"121 468 OFFCURVE",
"120 477 CURVE",
"119 488 OFFCURVE",
"124 493 OFFCURVE",
"137 492 CURVE",
"156 492 OFFCURVE",
"176 492 OFFCURVE",
"196 492 CURVE",
"317 492 OFFCURVE",
"438 492 OFFCURVE",
"560 492 CURVE",
"584 492 OFFCURVE",
"584 492 OFFCURVE",
"584 468 CURVE",
"584 461 OFFCURVE",
"583 453 OFFCURVE",
"584 444 CURVE",
"584 434 OFFCURVE",
"579 428 OFFCURVE",
"566 429 CURVE",
"496 429 OFFCURVE",
"424 429 OFFCURVE",
"353 429 CURVE"
);
},
{
closed = 1;
nodes = (
"282 -19 OFFCURVE",
"212 -19 OFFCURVE",
"141 -19 CURVE",
"121 -19 OFFCURVE",
"121 -19 OFFCURVE",
"121 0 CURVE",
"121 11 OFFCURVE",
"122 20 OFFCURVE",
"121 29 CURVE",
"120 40 OFFCURVE",
"125 45 OFFCURVE",
"137 45 CURVE",
"157 45 OFFCURVE",
"177 45 OFFCURVE",
"196 45 CURVE",
"318 45 OFFCURVE",
"439 45 OFFCURVE",
"561 45 CURVE",
"585 45 OFFCURVE",
"585 45 OFFCURVE",
"585 21 CURVE",
"585 12 OFFCURVE",
"584 5 OFFCURVE",
"585 -3 CURVE",
"585 -14 OFFCURVE",
"580 -20 OFFCURVE",
"567 -19 CURVE",
"496 -19 OFFCURVE",
"425 -19 OFFCURVE",
"353 -19 CURVE"
);
},
{
closed = 1;
nodes = (
"547 332 OFFCURVE",
"539 325 OFFCURVE",
"533 318 CURVE",
"510 286 OFFCURVE",
"480 278 OFFCURVE",
"441 279 CURVE",
"341 281 OFFCURVE",
"241 280 OFFCURVE",
"140 280 CURVE",
"121 280 OFFCURVE",
"121 280 OFFCURVE",
"121 300 CURVE",
"120 343 OFFCURVE",
"120 343 OFFCURVE",
"165 343 CURVE",
"531 343 LINE",
"551 343 LINE",
"552 343 OFFCURVE",
"552 341 OFFCURVE",
"553 340 CURVE"
);
},
{
closed = 1;
nodes = (
"435 171 OFFCURVE",
"430 153 OFFCURVE",
"420 134 CURVE",
"419 131 OFFCURVE",
"413 130 OFFCURVE",
"409 130 CURVE",
"318 130 OFFCURVE",
"227 130 OFFCURVE",
"135 130 CURVE",
"125 130 OFFCURVE",
"120 134 OFFCURVE",
"121 144 CURVE",
"121 154 OFFCURVE",
"121 166 OFFCURVE",
"121 177 CURVE",
"120 189 OFFCURVE",
"126 193 OFFCURVE",
"139 193 CURVE",
"190 193 OFFCURVE",
"242 193 OFFCURVE",
"294 193 CURVE",
"426 193 LINE",
"445 193 LINE"
);
},
{
closed = 1;
nodes = (
"958 550 OFFCURVE",
"956 545 OFFCURVE",
"954 541 CURVE",
"942 529 OFFCURVE",
"931 518 OFFCURVE",
"919 506 CURVE",
"916 503 OFFCURVE",
"908 504 OFFCURVE",
"905 507 CURVE",
"887 525 OFFCURVE",
"868 543 OFFCURVE",
"851 562 CURVE",
"848 564 OFFCURVE",
"848 573 OFFCURVE",
"851 577 CURVE",
"861 587 OFFCURVE",
"872 597 OFFCURVE",
"882 607 CURVE",
"891 617 OFFCURVE",
"903 619 OFFCURVE",
"913 610 CURVE",
"928 597 OFFCURVE",
"941 583 OFFCURVE",
"954 568 CURVE",
"957 565 OFFCURVE",
"958 560 OFFCURVE",
"961 556 CURVE"
);
}
);
width = 961;
}
);
note = uniE037;
unicode = E038;
},
{
glyphname = uniE039;
lastChange = "2018-11-13 13:00:12 +0000";
layers = (
{
layerId = "4E71560D-37DE-4538-9E60-5090AC0C42A9";
paths = (
{
closed = 1;
nodes = (
"627 205 OFFCURVE",
"636 202 OFFCURVE",
"642 194 CURVE",
"712 105 LINE",
"722 93 OFFCURVE",
"720 75 OFFCURVE",
"708 64 CURVE",
"694 54 OFFCURVE",
"674 55 OFFCURVE",
"664 68 CURVE",
"595 156 LINE",
"585 170 OFFCURVE",
"586 189 OFFCURVE",
"600 199 CURVE",
"605 203 OFFCURVE",
"611 205 OFFCURVE",
"618 205 CURVE"
);
},
{
closed = 1;
nodes = (
"533 171 OFFCURVE",
"544 160 OFFCURVE",
"545 144 CURVE",
"557 31 LINE",
"560 15 OFFCURVE",
"547 0 OFFCURVE",
"532 -1 CURVE",
"515 -2 OFFCURVE",
"500 9 OFFCURVE",
"498 25 CURVE",
"487 139 LINE",
"485 154 OFFCURVE",
"497 169 OFFCURVE",
"514 171 CURVE",
"514 171 OFFCURVE",
"515 171 OFFCURVE",
"516 171 CURVE"
);
},
{
closed = 1;
nodes = (
"659 312 OFFCURVE",
"662 312 OFFCURVE",
"665 310 CURVE",
"772 273 LINE",
"787 267 OFFCURVE",
"796 250 OFFCURVE",
"790 234 CURVE",
"785 219 OFFCURVE",
"768 211 OFFCURVE",
"751 216 CURVE",
"644 253 LINE",
"630 259 OFFCURVE",
"622 278 OFFCURVE",
"628 293 CURVE",
"632 304 OFFCURVE",
"642 312 OFFCURVE",
"654 312 CURVE"
);
},
{
closed = 1;
nodes = (
"165 592 OFFCURVE",
"156 595 OFFCURVE",
"150 603 CURVE",
"80 692 LINE",
"70 704 OFFCURVE",
"72 723 OFFCURVE",
"84 734 CURVE",
"98 744 OFFCURVE",
"118 743 OFFCURVE",
"128 730 CURVE",
"197 641 LINE",
"207 626 OFFCURVE",
"206 608 OFFCURVE",
"192 598 CURVE",
"187 594 OFFCURVE",
"181 592 OFFCURVE",
"174 592 CURVE"
);
},
{
closed = 1;
nodes = (
"259 627 OFFCURVE",
"248 638 OFFCURVE",
"247 653 CURVE",
"235 766 LINE",
"232 782 OFFCURVE",
"245 796 OFFCURVE",
"260 799 CURVE",
"277 800 OFFCURVE",
"291 789 OFFCURVE",
"294 772 CURVE",
"305 659 LINE",
"307 643 OFFCURVE",
"295 628 OFFCURVE",
"278 627 CURVE",
"278 627 OFFCURVE",
"277 627 OFFCURVE",
"276 627 CURVE"
);
},
{
closed = 1;
nodes = (
"133 485 OFFCURVE",
"130 486 OFFCURVE",
"127 487 CURVE",
"20 524 LINE",
"5 530 OFFCURVE",
"-4 548 OFFCURVE",
"2 564 CURVE",
"7 578 OFFCURVE",
"24 587 OFFCURVE",
"41 580 CURVE",
"148 544 LINE",
"162 538 OFFCURVE",
"170 520 OFFCURVE",
"164 505 CURVE",
"160 494 OFFCURVE",
"150 485 OFFCURVE",
"138 485 CURVE"
);
},
{
closed = 1;
nodes = (
"335 205 LINE",
"309 174 OFFCURVE",
"278 149 OFFCURVE",
"252 115 CURVE",
"216 88 OFFCURVE",
"171 81 OFFCURVE",
"134 106 CURVE",
"91 134 OFFCURVE",
"81 205 OFFCURVE",
"127 252 CURVE",
"150 277 OFFCURVE",
"174 301 OFFCURVE",
"199 327 CURVE",
"134 386 LINE",
"107 358 OFFCURVE",
"81 332 OFFCURVE",
"54 306 CURVE",
"-1 252 OFFCURVE",
"-9 180 OFFCURVE",
"19 115 CURVE",
"73 -2 OFFCURVE",
"216 -38 OFFCURVE",
"306 52 CURVE",
"339 85 OFFCURVE",
"373 114 OFFCURVE",
"403 145 CURVE"
);
},
{
closed = 1;
nodes = (
"656 396 LINE",
"690 428 OFFCURVE",
"722 461 OFFCURVE",
"757 496 CURVE",
"803 549 OFFCURVE",
"811 621 OFFCURVE",
"786 693 CURVE",
"740 811 OFFCURVE",
"586 836 OFFCURVE",
"496 747 CURVE",
"453 712 OFFCURVE",
"415 672 OFFCURVE",
"380 629 CURVE",
"433 585 LINE",
"449 575 OFFCURVE",
"449 585 OFFCURVE",
"467 593 CURVE",
"496 621 OFFCURVE",
"524 657 OFFCURVE",
"560 685 CURVE",
"586 721 OFFCURVE",
"632 721 OFFCURVE",
"667 703 CURVE",
"721 666 OFFCURVE",
"730 603 OFFCURVE",
"685 549 CURVE",
"654 518 OFFCURVE",
"622 487 OFFCURVE",
"590 452 CURVE"
);
}
);
width = 800;
}
);
note = uniE037;
unicode = E039;
},
{
glyphname = uniE040;
lastChange = "2018-11-26 14:24:38 +0000";
layers = (
{
layerId = "4E71560D-37DE-4538-9E60-5090AC0C42A9";
paths = (
{
closed = 1;
nodes = (
"665 532 OFFCURVE",
"684 497 OFFCURVE",
"697 459 CURVE",
"713 415 OFFCURVE",
"720 369 OFFCURVE",
"717 322 CURVE",
"713 256 OFFCURVE",
"693 194 OFFCURVE",
"654 140 CURVE",
"629 104 OFFCURVE",
"601 71 OFFCURVE",
"574 37 CURVE",
"530 -18 OFFCURVE",
"487 -73 OFFCURVE",
"443 -128 CURVE",
"430 -144 OFFCURVE",
"417 -161 OFFCURVE",
"403 -178 CURVE",
"378 -207 OFFCURVE",
"343 -208 OFFCURVE",
"318 -178 CURVE",
"292 -146 OFFCURVE",
"267 -113 OFFCURVE",
"241 -81 CURVE",
"192 -19 OFFCURVE",
"143 43 OFFCURVE",
"93 105 CURVE",
"62 143 OFFCURVE",
"37 184 OFFCURVE",
"22 231 CURVE",
"7 278 OFFCURVE",
"2 322 OFFCURVE",
"6 376 CURVE",
"8 402 OFFCURVE",
"14 428 OFFCURVE",
"21 452 CURVE",
"43 519 OFFCURVE",
"82 575 OFFCURVE",
"136 620 CURVE",
"173 650 OFFCURVE",
"215 672 OFFCURVE",
"261 685 CURVE",
"278 690 OFFCURVE",
"296 693 OFFCURVE",
"314 695 CURVE",
"329 698 OFFCURVE",
"345 699 OFFCURVE",
"356 700 CURVE",
"474 696 OFFCURVE",
"569 653 OFFCURVE",
"640 563 CURVE"
);
},
{
closed = 1;
nodes = (
"331 -80 OFFCURVE",
"345 -98 OFFCURVE",
"360 -117 CURVE",
"364 -113 OFFCURVE",
"366 -111 OFFCURVE",
"368 -108 CURVE",
"437 -22 OFFCURVE",
"506 65 OFFCURVE",
"575 152 CURVE",
"607 192 OFFCURVE",
"631 236 OFFCURVE",
"641 286 CURVE",
"650 331 OFFCURVE",
"648 376 OFFCURVE",
"635 421 CURVE",
"623 463 OFFCURVE",
"603 500 OFFCURVE",
"574 532 CURVE",
"529 582 OFFCURVE",
"473 613 OFFCURVE",
"406 624 CURVE",
"365 631 OFFCURVE",
"325 629 OFFCURVE",
"285 618 CURVE",
"247 608 OFFCURVE",
"212 590 OFFCURVE",
"181 564 CURVE",
"127 520 OFFCURVE",
"93 463 OFFCURVE",
"80 395 CURVE",
"71 350 OFFCURVE",
"74 305 OFFCURVE",
"87 261 CURVE",
"97 226 OFFCURVE",
"113 194 OFFCURVE",
"136 166 CURVE",
"317 -62 LINE"
);
},
{
closed = 1;
nodes = (
"284 199 OFFCURVE",
"219 263 OFFCURVE",
"218 342 CURVE",
"218 421 OFFCURVE",
"282 485 OFFCURVE",
"361 485 CURVE",
"439 485 OFFCURVE",
"502 422 OFFCURVE",
"503 343 CURVE",
"504 264 OFFCURVE",
"437 198 OFFCURVE",
"360 201 CURVE"
);
},
{
closed = 1;
nodes = (
"322 414 OFFCURVE",
"289 381 OFFCURVE",
"289 342 CURVE",
"289 303 OFFCURVE",
"322 271 OFFCURVE",
"361 271 CURVE",
"400 271 OFFCURVE",
"433 304 OFFCURVE",
"433 343 CURVE",
"432 382 OFFCURVE",
"399 414 OFFCURVE",
"361 414 CURVE"
);
}
);
width = 723;
}
);
note = uniE037;
unicode = E040;
},
{
glyphname = uniE041;
lastChange = "2019-02-12 11:23:31 +0000";
layers = (
{
layerId = "4E71560D-37DE-4538-9E60-5090AC0C42A9";
paths = (
{
closed = 1;
nodes = (
"494 -103 LINE",
"416 104 LINE",
"469 115 OFFCURVE",
"518 140 OFFCURVE",
"558 176 CURVE",
"654 -34 LINE",
"550 -17 LINE"
);
},
{
closed = 1;
nodes = (
"213 192 OFFCURVE",
"125 300 OFFCURVE",
"136 420 CURVE",
"147 533 OFFCURVE",
"241 619 OFFCURVE",
"355 619 CURVE SMOOTH",
"362 619 OFFCURVE",
"369 618 OFFCURVE",
"376 618 CURVE",
"435 612 OFFCURVE",
"488 584 OFFCURVE",
"525 538 CURVE",
"562 493 OFFCURVE",
"580 436 OFFCURVE",
"574 378 CURVE",
"562 257 OFFCURVE",
"456 169 OFFCURVE",
"334 180 CURVE"
);
},
{
closed = 1;
nodes = (
"170 -15 LINE",
"60 -26 LINE",
"139 192 LINE",
"178 151 OFFCURVE",
"228 122 OFFCURVE",
"285 108 CURVE",
"218 -100 LINE"
);
},
{
closed = 1;
nodes = (
"624 253 OFFCURVE",
"648 308 OFFCURVE",
"654 370 CURVE",
"662 450 OFFCURVE",
"639 528 OFFCURVE",
"588 590 CURVE",
"537 652 OFFCURVE",
"464 691 OFFCURVE",
"384 698 CURVE",
"217 715 OFFCURVE",
"72 593 OFFCURVE",
"56 428 CURVE",
"48 355 OFFCURVE",
"70 285 OFFCURVE",
"109 229 CURVE",
"0 -73 LINE",
"148 -58 LINE",
"229 -200 LINE",
"325 100 LINE",
"325 100 OFFCURVE",
"326 100 OFFCURVE",
"326 100 CURVE",
"336 99 OFFCURVE",
"346 98 OFFCURVE",
"355 98 CURVE",
"362 98 OFFCURVE",
"368 99 OFFCURVE",
"374 100 CURVE",
"484 -200 LINE",
"569 -61 LINE",
"723 -86 LINE",
"587 208 LINE"
);
}
);
width = 723;
}
);
note = uniE037;
unicode = E041;
},
{
glyphname = uniE042;
lastChange = "2018-11-26 14:43:45 +0000";
layers = (
{
layerId = "4E71560D-37DE-4538-9E60-5090AC0C42A9";
paths = (
{
closed = 1;
nodes = (
"642 261 LINE",
"642 395 LINE",
"776 395 LINE",
"776 261 LINE"
);
},
{
closed = 1;
nodes = (
"642 64 LINE",
"642 198 LINE",
"776 198 LINE",
"776 64 LINE"
);
},
{
closed = 1;
nodes = (
"382 64 LINE",
"382 198 LINE",
"516 198 LINE",
"516 64 LINE"
);
},
{
closed = 1;
nodes = (
"516 395 LINE",
"516 261 LINE",
"382 261 LINE",
"382 395 LINE"
);
},
{
closed = 1;
nodes = (
"116 64 LINE",
"116 198 LINE",
"250 198 LINE",
"250 64 LINE"
);
},
{
closed = 1;
nodes = (
"250 395 LINE",
"250 261 LINE",
"116 261 LINE",
"116 395 LINE"
);
},
{
closed = 1;
nodes = (
"5 2 LINE",
"5 -41 OFFCURVE",
"40 -76 OFFCURVE",
"83 -76 CURVE",
"814 -76 LINE",
"858 -76 OFFCURVE",
"893 -41 OFFCURVE",
"893 2 CURVE",
"893 500 LINE",
"5 500 LINE"
);
},
{
closed = 1;
nodes = (
"5 566 LINE",
"5 621 LINE",
"5 664 OFFCURVE",
"40 700 OFFCURVE",
"83 700 CURVE",
"162 700 LINE",
"162 740 LINE",
"162 773 OFFCURVE",
"189 800 OFFCURVE",
"222 800 CURVE",
"255 800 OFFCURVE",
"282 773 OFFCURVE",
"282 740 CURVE",
"282 700 LINE",
"623 700 LINE",
"623 740 LINE",
"623 773 OFFCURVE",
"650 800 OFFCURVE",
"683 800 CURVE",
"716 800 OFFCURVE",
"743 773 OFFCURVE",
"743 740 CURVE",
"743 700 LINE",
"814 700 LINE",
"858 700 OFFCURVE",
"893 664 OFFCURVE",
"893 621 CURVE",
"893 566 LINE"
);
}
);
width = 898;
}
);
note = uniE037;
unicode = E042;
},
{
glyphname = uniE043;
lastChange = "2018-11-27 06:15:27 +0000";
layers = (
{
layerId = "4E71560D-37DE-4538-9E60-5090AC0C42A9";
paths = (
{
closed = 1;
nodes = (
"293 186 OFFCURVE",
"293 168 OFFCURVE",
"293 150 CURVE",
"294 124 OFFCURVE",
"309 107 OFFCURVE",
"332 106 CURVE",
"357 106 OFFCURVE",
"373 123 OFFCURVE",
"374 150 CURVE",
"374 177 OFFCURVE",
"374 203 OFFCURVE",
"374 230 CURVE",
"373 253 OFFCURVE",
"375 274 OFFCURVE",
"390 294 CURVE",
"408 319 OFFCURVE",
"399 358 OFFCURVE",
"376 377 CURVE",
"350 398 OFFCURVE",
"312 397 OFFCURVE",
"288 375 CURVE",
"265 354 OFFCURVE",
"260 315 OFFCURVE",
"280 289 CURVE",
"290 275 OFFCURVE",
"295 261 OFFCURVE",
"293 244 CURVE",
"293 231 OFFCURVE",
"293 217 OFFCURVE",
"293 203 CURVE SMOOTH"
);
},
{
closed = 1;
nodes = (
"231 500 OFFCURVE",
"432 500 OFFCURVE",
"480 500 CURVE",
"495 500 OFFCURVE",
"500 505 OFFCURVE",
"499 519 CURVE",
"498 550 OFFCURVE",
"499 511 OFFCURVE",
"499 541 CURVE",
"497 613 OFFCURVE",
"455 671 OFFCURVE",
"388 696 CURVE",
"289 732 OFFCURVE",
"177 661 OFFCURVE",
"170 556 CURVE",
"167 521 OFFCURVE",
"170 556 OFFCURVE",
"168 522 CURVE",
"167 504 OFFCURVE",
"174 500 OFFCURVE",
"191 500 CURVE"
);
},
{
closed = 1;
nodes = (
"523 0 OFFCURVE",
"147 0 OFFCURVE",
"55 0 CURVE",
"18 0 OFFCURVE",
"5 13 OFFCURVE",
"5 49 CURVE",
"5 190 OFFCURVE",
"5 314 OFFCURVE",
"5 454 CURVE",
"5 483 OFFCURVE",
"17 497 OFFCURVE",
"46 500 CURVE",
"60 502 OFFCURVE",
"61 509 OFFCURVE",
"60 519 CURVE",
"60 551 OFFCURVE",
"59 514 OFFCURVE",
"61 547 CURVE",
"66 656 OFFCURVE",
"117 739 OFFCURVE",
"216 786 CURVE",
"385 868 OFFCURVE",
"580 761 OFFCURVE",
"603 574 CURVE",
"608 533 OFFCURVE",
"606 562 OFFCURVE",
"607 521 CURVE",
"607 507 OFFCURVE",
"609 501 OFFCURVE",
"625 500 CURVE",
"647 499 OFFCURVE",
"662 482 OFFCURVE",
"662 459 CURVE",
"662 315 OFFCURVE",
"662 186 OFFCURVE",
"662 41 CURVE",
"661 15 OFFCURVE",
"645 0 OFFCURVE",
"618 0 CURVE"
);
}
);
width = 667;
}
);
note = uniE037;
unicode = E043;
},
{
glyphname = uniE044;
layers = (
{
layerId = "4E71560D-37DE-4538-9E60-5090AC0C42A9";
paths = (
{
closed = 1;
nodes = (
"496 363 OFFCURVE",
"575 442 OFFCURVE",
"575 540 CURVE SMOOTH",
"575 637 OFFCURVE",
"496 716 OFFCURVE",
"399 716 CURVE SMOOTH",
"301 716 OFFCURVE",
"222 637 OFFCURVE",
"222 540 CURVE SMOOTH",
"222 442 OFFCURVE",
"301 363 OFFCURVE",
"399 363 CURVE SMOOTH"
);
},
{
closed = 1;
nodes = (
"746 -40 OFFCURVE",
"792 40 OFFCURVE",
"792 138 CURVE SMOOTH",
"792 300 OFFCURVE",
"688 373 OFFCURVE",
"612 373 CURVE SMOOTH",
"534 373 OFFCURVE",
"497 315 OFFCURVE",
"396 315 CURVE SMOOTH",
"293 315 OFFCURVE",
"266 371 OFFCURVE",
"187 371 CURVE SMOOTH",
"103 371 OFFCURVE",
"0 299 OFFCURVE",
"0 138 CURVE SMOOTH",
"0 40 OFFCURVE",
"46 -40 OFFCURVE",
"396 -40 CURVE SMOOTH"
);
}
);
width = 792;
}
);
note = uniE037;
unicode = E044;
},
{
glyphname = uniE045;
lastChange = "2019-01-14 07:06:48 +0000";
layers = (
{
layerId = "4E71560D-37DE-4538-9E60-5090AC0C42A9";
paths = (
{
closed = 1;
nodes = (
"730 582 OFFCURVE",
"583 730 OFFCURVE",
"400 730 CURVE",
"217 730 OFFCURVE",
"69 582 OFFCURVE",
"69 400 CURVE",
"69 217 OFFCURVE",
"217 69 OFFCURVE",
"400 69 CURVE",
"583 69 OFFCURVE",
"730 217 OFFCURVE",
"730 400 CURVE"
);
},
{
closed = 1;
nodes = (
"800 179 OFFCURVE",
"621 0 OFFCURVE",
"400 0 CURVE",
"179 0 OFFCURVE",
"0 179 OFFCURVE",
"0 400 CURVE",
"0 621 OFFCURVE",
"179 800 OFFCURVE",
"400 800 CURVE",
"621 800 OFFCURVE",
"800 621 OFFCURVE",
"800 400 CURVE"
);
},
{
closed = 1;
nodes = (
"369 609 LINE",
"370 614 OFFCURVE",
"373 618 OFFCURVE",
"378 619 CURVE",
"417 619 LINE",
"422 618 OFFCURVE",
"426 614 OFFCURVE",
"426 609 CURVE",
"425 425 LINE",
"610 425 LINE",
"615 425 OFFCURVE",
"619 421 OFFCURVE",
"620 416 CURVE",
"620 377 LINE",
"619 372 OFFCURVE",
"615 369 OFFCURVE",
"610 368 CURVE",
"426 369 LINE",
"426 184 LINE",
"426 179 OFFCURVE",
"422 175 OFFCURVE",
"417 174 CURVE",
"378 174 LINE",
"373 175 OFFCURVE",
"369 179 OFFCURVE",
"369 184 CURVE",
"369 369 LINE",
"185 368 LINE",
"180 369 OFFCURVE",
"176 372 OFFCURVE",
"175 377 CURVE",
"175 416 LINE",
"176 421 OFFCURVE",
"180 425 OFFCURVE",
"185 425 CURVE",
"370 425 LINE"
);
}
);
width = 800;
}
);
unicode = E045;
},
{
glyphname = uniE046;
lastChange = "2019-01-14 07:06:27 +0000";
layers = (
{
layerId = "4E71560D-37DE-4538-9E60-5090AC0C42A9";
paths = (
{
closed = 1;
nodes = (
"730 582 OFFCURVE",
"583 730 OFFCURVE",
"400 730 CURVE",
"217 730 OFFCURVE",
"69 582 OFFCURVE",
"69 400 CURVE",
"69 217 OFFCURVE",
"217 69 OFFCURVE",
"400 69 CURVE",
"583 69 OFFCURVE",
"730 217 OFFCURVE",
"730 400 CURVE"
);
},
{
closed = 1;
nodes = (
"800 179 OFFCURVE",
"621 0 OFFCURVE",
"400 0 CURVE",
"179 0 OFFCURVE",
"0 179 OFFCURVE",
"0 400 CURVE",
"0 621 OFFCURVE",
"179 800 OFFCURVE",
"400 800 CURVE",
"621 800 OFFCURVE",
"800 621 OFFCURVE",
"800 400 CURVE"
);
},
{
closed = 1;
nodes = (
"617 659 LINE",
"621 662 OFFCURVE",
"626 663 OFFCURVE",
"631 660 CURVE",
"661 630 LINE",
"664 625 OFFCURVE",
"664 619 OFFCURVE",
"660 616 CURVE",
"188 144 LINE",
"185 141 OFFCURVE",
"179 141 OFFCURVE",
"174 143 CURVE",
"144 173 LINE",
"142 178 OFFCURVE",
"142 184 OFFCURVE",
"145 187 CURVE"
);
}
);
width = 800;
}
);
unicode = E046;
},
{
glyphname = uniE047;
lastChange = "2019-02-01 13:57:58 +0000";
layers = (
{
layerId = "4E71560D-37DE-4538-9E60-5090AC0C42A9";
paths = (
{
closed = 1;
nodes = (
"784 306 OFFCURVE",
"615 500 OFFCURVE",
"400 500 CURVE",
"185 500 OFFCURVE",
"17 306 OFFCURVE",
"9 298 CURVE",
"-4 281 OFFCURVE",
"-4 257 OFFCURVE",
"9 242 CURVE",
"17 233 OFFCURVE",
"185 38 OFFCURVE",
"400 38 CURVE",
"615 38 OFFCURVE",
"784 233 OFFCURVE",
"790 242 CURVE",
"805 257 OFFCURVE",
"805 281 OFFCURVE",
"790 298 CURVE"
);
},
{
closed = 1;
nodes = (
"480 391 OFFCURVE",
"501 383 OFFCURVE",
"511 364 CURVE",
"521 344 OFFCURVE",
"518 322 OFFCURVE",
"503 314 CURVE",
"489 307 OFFCURVE",
"469 316 OFFCURVE",
"458 335 CURVE",
"448 354 OFFCURVE",
"452 376 OFFCURVE",
"466 384 CURVE"
);
},
{
closed = 1;
nodes = (
"250 109 OFFCURVE",
"124 224 OFFCURVE",
"80 269 CURVE",
"109 300 OFFCURVE",
"177 363 OFFCURVE",
"263 400 CURVE",
"247 374 OFFCURVE",
"237 343 OFFCURVE",
"237 310 CURVE",
"237 220 OFFCURVE",
"310 146 OFFCURVE",
"400 146 CURVE",
"490 146 OFFCURVE",
"564 220 OFFCURVE",
"564 310 CURVE",
"564 343 OFFCURVE",
"554 374 OFFCURVE",
"537 400 CURVE",
"624 363 OFFCURVE",
"691 300 OFFCURVE",
"721 269 CURVE",
"677 224 OFFCURVE",
"551 109 OFFCURVE",
"400 109 CURVE"
);
}
);
width = 800;
}
);
unicode = E047;
},
{
glyphname = uniE048;
lastChange = "2019-02-01 14:09:44 +0000";
layers = (
{
layerId = "4E71560D-37DE-4538-9E60-5090AC0C42A9";
paths = (
{
closed = 1;
nodes = (
"276 276 LINE",
"262 276 OFFCURVE",
"250 265 OFFCURVE",
"250 251 CURVE",
"250 237 OFFCURVE",
"262 226 OFFCURVE",
"276 226 CURVE",
"524 226 LINE",
"538 226 OFFCURVE",
"550 237 OFFCURVE",
"550 251 CURVE",
"550 265 OFFCURVE",
"538 276 OFFCURVE",
"524 276 CURVE"
);
},
{
closed = 1;
nodes = (
"226 425 LINE",
"212 425 OFFCURVE",
"200 415 OFFCURVE",
"200 401 CURVE",
"200 387 OFFCURVE",
"212 376 OFFCURVE",
"226 376 CURVE",
"574 376 LINE",
"588 376 OFFCURVE",
"600 387 OFFCURVE",
"600 401 CURVE",
"600 415 OFFCURVE",
"588 425 OFFCURVE",
"574 425 CURVE"
);
},
{
closed = 1;
nodes = (
"179 700 OFFCURVE",
"1 544 OFFCURVE",
"1 351 CURVE",
"1 240 OFFCURVE",
"59 142 OFFCURVE",
"150 78 CURVE",
"150 -98 LINE",
"325 8 LINE",
"350 4 OFFCURVE",
"375 2 OFFCURVE",
"400 2 CURVE",
"621 2 OFFCURVE",
"799 158 OFFCURVE",
"799 351 CURVE",
"799 544 OFFCURVE",
"621 700 OFFCURVE",
"400 700 CURVE"
);
},
{
closed = 1;
nodes = (
"371 51 OFFCURVE",
"343 55 OFFCURVE",
"316 61 CURVE",
"198 -10 LINE",
"200 106 LINE",
"110 160 OFFCURVE",
"51 249 OFFCURVE",
"51 351 CURVE",
"51 517 OFFCURVE",
"207 650 OFFCURVE",
"400 650 CURVE",
"593 650 OFFCURVE",
"749 517 OFFCURVE",
"749 351 CURVE",
"749 185 OFFCURVE",
"593 51 OFFCURVE",
"400 51 CURVE"
);
}
);
width = 800;
}
);
unicode = E048;
},
{
glyphname = uniE049;
lastChange = "2019-02-01 14:18:53 +0000";
layers = (
{
layerId = "4E71560D-37DE-4538-9E60-5090AC0C42A9";
paths = (
{
closed = 1;
nodes = (
"98 541 LINE",
"50 541 OFFCURVE",
"10 502 OFFCURVE",
"10 454 CURVE",
"10 88 LINE",
"10 39 OFFCURVE",
"50 0 OFFCURVE",
"98 0 CURVE",
"633 0 LINE",
"682 0 OFFCURVE",
"721 39 OFFCURVE",
"721 88 CURVE",
"721 453 LINE",
"721 502 OFFCURVE",
"682 541 OFFCURVE",
"633 541 CURVE"
);
},
{
closed = 1;
nodes = (
"681 61 OFFCURVE",
"660 40 OFFCURVE",
"633 40 CURVE",
"98 40 LINE",
"71 40 OFFCURVE",
"50 61 OFFCURVE",
"50 88 CURVE",
"50 453 LINE",
"50 480 OFFCURVE",
"71 501 OFFCURVE",
"98 501 CURVE",
"633 501 LINE",
"660 501 OFFCURVE",
"681 480 OFFCURVE",
"681 453 CURVE",
"681 88 LINE"
);
},
{
closed = 1;
nodes = (
"632 431 LINE",
"640 438 OFFCURVE",
"641 451 OFFCURVE",
"633 459 CURVE",
"626 467 OFFCURVE",
"613 468 OFFCURVE",
"606 460 CURVE",
"366 246 LINE",
"320 288 LINE",
"320 288 OFFCURVE",
"319 288 OFFCURVE",
"319 288 CURVE",
"319 289 OFFCURVE",
"317 290 OFFCURVE",
"316 291 CURVE",
"125 461 LINE",
"118 468 OFFCURVE",
"105 468 OFFCURVE",
"98 459 CURVE",
"90 451 OFFCURVE",
"91 438 OFFCURVE",
"100 431 CURVE",
"275 274 LINE",
"100 110 LINE",
"92 103 OFFCURVE",
"92 90 OFFCURVE",
"99 82 CURVE",
"103 78 OFFCURVE",
"109 76 OFFCURVE",
"114 76 CURVE",
"119 76 OFFCURVE",
"123 78 OFFCURVE",
"127 81 CURVE",
"305 247 LINE",
"353 204 LINE",
"357 200 OFFCURVE",
"362 199 OFFCURVE",
"366 199 CURVE",
"370 199 OFFCURVE",
"376 201 OFFCURVE",
"379 205 CURVE",
"429 249 LINE",
"606 81 LINE",
"609 78 OFFCURVE",
"615 76 OFFCURVE",
"619 76 CURVE",
"625 76 OFFCURVE",
"629 78 OFFCURVE",
"633 82 CURVE",
"641 90 OFFCURVE",
"641 102 OFFCURVE",
"632 110 CURVE",
"459 275 LINE"
);
}
);
width = 731;
}
);
unicode = E049;
},
{
glyphname = uniE050;
lastChange = "2019-02-12 11:19:57 +0000";
layers = (
{
layerId = "4E71560D-37DE-4538-9E60-5090AC0C42A9";
paths = (
{
closed = 1;
nodes = (
"730 582 OFFCURVE",
"583 730 OFFCURVE",
"400 730 CURVE",
"217 730 OFFCURVE",
"69 582 OFFCURVE",
"69 400 CURVE",
"69 217 OFFCURVE",
"217 69 OFFCURVE",
"400 69 CURVE",
"583 69 OFFCURVE",
"730 217 OFFCURVE",
"730 400 CURVE"
);
},
{
closed = 1;
nodes = (
"800 179 OFFCURVE",
"621 0 OFFCURVE",
"400 0 CURVE",
"179 0 OFFCURVE",
"0 179 OFFCURVE",
"0 400 CURVE",
"0 621 OFFCURVE",
"179 800 OFFCURVE",
"400 800 CURVE",
"621 800 OFFCURVE",
"800 621 OFFCURVE",
"800 400 CURVE"
);
},
{
closed = 0;
nodes = (
"288 587 LINE"
);
},
{
closed = 1;
nodes = (
"455 280 OFFCURVE",
"455 233 OFFCURVE",
"456 184 CURVE",
"456 162 OFFCURVE",
"438 139 OFFCURVE",
"413 141 CURVE",
"399 141 OFFCURVE",
"385 141 OFFCURVE",
"412 141 CURVE",
"390 139 OFFCURVE",
"369 158 OFFCURVE",
"369 183 CURVE",
"369 204 OFFCURVE",
"369 225 OFFCURVE",
"369 247 CURVE",
"369 299 OFFCURVE",
"369 351 OFFCURVE",
"369 403 CURVE",
"369 408 OFFCURVE",
"368 410 OFFCURVE",
"362 410 CURVE",
"355 410 OFFCURVE",
"349 410 OFFCURVE",
"343 410 CURVE",
"329 410 OFFCURVE",
"321 418 OFFCURVE",
"320 432 CURVE",
"320 447 OFFCURVE",
"320 461 OFFCURVE",
"320 476 CURVE",
"321 489 OFFCURVE",
"328 496 OFFCURVE",
"340 496 CURVE",
"368 498 OFFCURVE",
"395 498 OFFCURVE",
"423 498 CURVE",
"398 498 OFFCURVE",
"414 498 OFFCURVE",
"430 498 CURVE",
"448 498 OFFCURVE",
"456 485 OFFCURVE",
"456 472 CURVE",
"455 424 OFFCURVE",
"455 375 OFFCURVE",
"455 328 CURVE"
);
},
{
closed = 1;
nodes = (
"472 570 OFFCURVE",
"441 540 OFFCURVE",
"400 540 CURVE",
"363 541 OFFCURVE",
"333 574 OFFCURVE",
"333 610 CURVE",
"333 650 OFFCURVE",
"364 680 OFFCURVE",
"404 680 CURVE",
"442 680 OFFCURVE",
"473 648 OFFCURVE",
"472 610 CURVE"
);
}
);
width = 800;
}
);
unicode = E050;
},
{
glyphname = uniE051;
lastChange = "2019-06-04 16:03:30 +0000";
layers = (
{
layerId = "4E71560D-37DE-4538-9E60-5090AC0C42A9";
paths = (
{
closed = 1;
nodes = (
"779 506 OFFCURVE",
"777 508 OFFCURVE",
"775 509 CURVE",
"657 555 OFFCURVE",
"540 601 OFFCURVE",
"422 645 CURVE",
"405 651 OFFCURVE",
"382 650 OFFCURVE",
"365 644 CURVE",
"254 603 OFFCURVE",
"144 560 OFFCURVE",
"34 517 CURVE",
"25 514 OFFCURVE",
"17 506 OFFCURVE",
"9 500 CURVE",
"17 493 OFFCURVE",
"23 484 OFFCURVE",
"32 481 CURVE",
"144 438 OFFCURVE",
"257 394 OFFCURVE",
"369 353 CURVE",
"385 347 OFFCURVE",
"407 348 OFFCURVE",
"423 354 CURVE",
"494 379 OFFCURVE",
"564 407 OFFCURVE",
"635 434 CURVE",
"672 448 OFFCURVE",
"708 461 OFFCURVE",
"749 477 CURVE",
"749 419 OFFCURVE",
"750 368 OFFCURVE",
"749 317 CURVE",
"748 289 OFFCURVE",
"742 262 OFFCURVE",
"738 235 CURVE",
"734 205 OFFCURVE",
"729 176 OFFCURVE",
"727 146 CURVE",
"726 139 OFFCURVE",
"734 127 OFFCURVE",
"740 125 CURVE",
"776 112 OFFCURVE",
"794 126 OFFCURVE",
"794 163 CURVE",
"794 173 OFFCURVE",
"792 184 OFFCURVE",
"789 194 CURVE",
"777 241 OFFCURVE",
"761 288 OFFCURVE",
"766 338 CURVE",
"770 370 OFFCURVE",
"766 402 OFFCURVE",
"767 434 CURVE",
"768 457 OFFCURVE",
"773 479 OFFCURVE",
"776 508 CURVE"
);
},
{
closed = 1;
nodes = (
"561 370 OFFCURVE",
"508 351 OFFCURVE",
"455 328 CURVE",
"413 310 OFFCURVE",
"374 310 OFFCURVE",
"333 330 CURVE",
"289 349 OFFCURVE",
"244 364 OFFCURVE",
"200 381 CURVE",
"184 387 OFFCURVE",
"170 389 OFFCURVE",
"170 366 CURVE",
"170 329 OFFCURVE",
"170 292 OFFCURVE",
"171 255 CURVE",
"172 227 OFFCURVE",
"190 212 OFFCURVE",
"217 207 CURVE",
"225 205 OFFCURVE",
"234 204 OFFCURVE",
"242 202 CURVE",
"356 165 OFFCURVE",
"468 177 OFFCURVE",
"581 209 CURVE",
"602 215 OFFCURVE",
"619 227 OFFCURVE",
"620 250 CURVE",
"621 296 OFFCURVE",
"620 341 OFFCURVE",
"620 393 CURVE"
);
}
);
width = 800;
}
);
unicode = E051;
},
{
glyphname = uniE052;
lastChange = "2019-06-04 16:23:32 +0000";
layers = (
{
layerId = "4E71560D-37DE-4538-9E60-5090AC0C42A9";
paths = (
{
closed = 1;
nodes = (
"491 537 OFFCURVE",
"563 465 OFFCURVE",
"563 373 CURVE",
"563 283 OFFCURVE",
"486 208 OFFCURVE",
"395 208 CURVE",
"305 209 OFFCURVE",
"229 285 OFFCURVE",
"230 374 CURVE",
"230 466 OFFCURVE",
"305 538 OFFCURVE",
"398 537 CURVE"
);
},
{
closed = 1;
nodes = (
"400 -196 OFFCURVE",
"418 -170 OFFCURVE",
"420 -167 CURVE SMOOTH",
"503 -54 OFFCURVE",
"585 64 OFFCURVE",
"667 179 CURVE",
"727 264 OFFCURVE",
"745 360 OFFCURVE",
"718 460 CURVE",
"671 637 OFFCURVE",
"493 746 OFFCURVE",
"305 693 CURVE",
"92 635 OFFCURVE",
"-6 381 OFFCURVE",
"115 197 CURVE",
"185 92 OFFCURVE",
"262 -8 OFFCURVE",
"335 -111 CURVE",
"355 -137 OFFCURVE",
"374 -167 OFFCURVE",
"398 -200 CURVE"
);
}
);
width = 800;
}
);
unicode = E052;
},
{
glyphname = uniE053;
lastChange = "2019-06-04 16:36:46 +0000";
layers = (
{
layerId = "4E71560D-37DE-4538-9E60-5090AC0C42A9";
paths = (
{
closed = 1;
nodes = (
"40 255 OFFCURVE",
"40 160 OFFCURVE",
"40 65 CURVE",
"41 54 OFFCURVE",
"42 42 OFFCURVE",
"47 33 CURVE",
"59 8 OFFCURVE",
"82 0 OFFCURVE",
"109 0 CURVE",
"212 1 OFFCURVE",
"315 1 OFFCURVE",
"418 1 CURVE",
"425 1 OFFCURVE",
"432 1 OFFCURVE",
"438 1 CURVE",
"448 0 OFFCURVE",
"453 4 OFFCURVE",
"452 14 CURVE",
"452 24 OFFCURVE",
"452 33 OFFCURVE",
"452 42 CURVE",
"453 54 OFFCURVE",
"448 59 OFFCURVE",
"436 59 CURVE",
"421 58 OFFCURVE",
"405 59 OFFCURVE",
"389 59 CURVE",
"300 59 OFFCURVE",
"210 59 OFFCURVE",
"120 59 CURVE",
"101 59 OFFCURVE",
"99 62 OFFCURVE",
"98 80 CURVE",
"98 96 OFFCURVE",
"98 111 OFFCURVE",
"98 127 CURVE",
"98 290 OFFCURVE",
"98 454 OFFCURVE",
"98 617 CURVE",
"98 637 OFFCURVE",
"101 640 OFFCURVE",
"121 640 CURVE",
"214 640 OFFCURVE",
"308 640 OFFCURVE",
"401 640 CURVE",
"422 640 OFFCURVE",
"425 637 OFFCURVE",
"425 616 CURVE",
"425 587 OFFCURVE",
"425 557 OFFCURVE",
"425 527 CURVE",
"424 516 OFFCURVE",
"428 511 OFFCURVE",
"441 511 CURVE",
"471 512 OFFCURVE",
"501 511 OFFCURVE",
"531 511 CURVE",
"549 511 OFFCURVE",
"551 510 OFFCURVE",
"551 491 CURVE",
"551 416 OFFCURVE",
"551 341 OFFCURVE",
"551 265 CURVE",
"551 220 OFFCURVE",
"545 225 OFFCURVE",
"593 224 CURVE",
"606 224 OFFCURVE",
"611 229 OFFCURVE",
"610 241 CURVE",
"610 342 OFFCURVE",
"611 442 OFFCURVE",
"610 542 CURVE",
"610 550 OFFCURVE",
"604 561 OFFCURVE",
"598 567 CURVE",
"559 607 OFFCURVE",
"518 647 OFFCURVE",
"478 687 CURVE",
"471 693 OFFCURVE",
"461 697 OFFCURVE",
"452 697 CURVE",
"426 699 OFFCURVE",
"400 698 OFFCURVE",
"373 698 CURVE",
"284 698 OFFCURVE",
"194 698 OFFCURVE",
"105 697 CURVE",
"93 697 OFFCURVE",
"80 694 OFFCURVE",
"69 688 CURVE",
"48 677 OFFCURVE",
"40 658 OFFCURVE",
"40 633 CURVE",
"41 538 OFFCURVE",
"40 444 OFFCURVE",
"40 350 CURVE"
);
},
{
closed = 1;
nodes = (
"530 101 OFFCURVE",
"518 90 OFFCURVE",
"507 78 CURVE",
"501 72 OFFCURVE",
"504 67 OFFCURVE",
"510 61 CURVE",
"540 31 OFFCURVE",
"570 1 OFFCURVE",
"601 -29 CURVE",
"615 -43 OFFCURVE",
"615 -43 OFFCURVE",
"629 -29 CURVE",
"676 17 OFFCURVE",
"723 64 OFFCURVE",
"770 110 CURVE",
"794 134 OFFCURVE",
"794 136 OFFCURVE",
"770 160 CURVE",
"769 161 OFFCURVE",
"767 162 OFFCURVE",
"766 164 CURVE",
"752 176 OFFCURVE",
"751 176 OFFCURVE",
"738 163 CURVE",
"702 127 OFFCURVE",
"666 91 OFFCURVE",
"630 55 CURVE",
"616 41 OFFCURVE",
"613 41 OFFCURVE",
"599 56 CURVE",
"581 74 OFFCURVE",
"563 93 OFFCURVE",
"543 113 CURVE"
);
},
{
closed = 1;
nodes = (
"290 350 LINE",
"385 350 LINE",
"420 350 OFFCURVE",
"420 350 OFFCURVE",
"420 384 CURVE",
"419 408 OFFCURVE",
"417 411 OFFCURVE",
"392 411 CURVE",
"331 411 OFFCURVE",
"270 411 OFFCURVE",
"209 410 CURVE",
"157 410 OFFCURVE",
"166 422 OFFCURVE",
"165 362 CURVE",
"165 353 OFFCURVE",
"169 349 OFFCURVE",
"180 349 CURVE",
"217 350 OFFCURVE",
"253 350 OFFCURVE",
"290 350 CURVE"
);
},
{
closed = 1;
nodes = (
"257 222 LINE",
"310 222 LINE",
"355 222 OFFCURVE",
"355 223 OFFCURVE",
"352 269 CURVE",
"352 278 OFFCURVE",
"348 282 OFFCURVE",
"339 282 CURVE",
"285 282 OFFCURVE",
"230 282 OFFCURVE",
"176 282 CURVE",
"167 282 OFFCURVE",
"165 278 OFFCURVE",
"165 270 CURVE",
"165 260 OFFCURVE",
"165 249 OFFCURVE",
"165 238 CURVE",
"165 227 OFFCURVE",
"169 222 OFFCURVE",
"181 222 CURVE",
"207 223 OFFCURVE",
"232 222 OFFCURVE",
"257 222 CURVE"
);
}
);
width = 800;
}
);
unicode = E053;
},
{
glyphname = uniE054;
lastChange = "2019-07-11 13:47:36 +0000";
layers = (
{
layerId = "4E71560D-37DE-4538-9E60-5090AC0C42A9";
paths = (
{
closed = 1;
nodes = (
"294 0 OFFCURVE",
"188 0 OFFCURVE",
"82 0 CURVE",
"47 0 OFFCURVE",
"20 23 OFFCURVE",
"14 56 CURVE",
"7 90 OFFCURVE",
"24 121 OFFCURVE",
"56 133 CURVE",
"64 137 OFFCURVE",
"73 138 OFFCURVE",
"81 138 CURVE",
"88 139 OFFCURVE",
"90 141 OFFCURVE",
"90 147 CURVE",
"90 205 OFFCURVE",
"90 263 OFFCURVE",
"90 320 CURVE",
"90 362 OFFCURVE",
"90 403 OFFCURVE",
"90 446 CURVE",
"90 477 OFFCURVE",
"112 500 OFFCURVE",
"143 500 CURVE",
"314 500 OFFCURVE",
"484 500 OFFCURVE",
"655 500 CURVE",
"688 500 OFFCURVE",
"710 478 OFFCURVE",
"710 444 CURVE",
"710 346 OFFCURVE",
"710 248 OFFCURVE",
"710 149 CURVE",
"710 139 OFFCURVE",
"710 139 OFFCURVE",
"720 138 CURVE",
"751 137 OFFCURVE",
"776 117 OFFCURVE",
"785 87 CURVE",
"796 50 OFFCURVE",
"768 7 OFFCURVE",
"731 2 CURVE",
"724 1 OFFCURVE",
"718 0 OFFCURVE",
"712 0 CURVE",
"608 0 OFFCURVE",
"504 0 OFFCURVE",
"400 0 CURVE"
);
},
{
closed = 1;
nodes = (
"151 448 LINE",
"141 448 OFFCURVE",
"141 448 OFFCURVE",
"141 439 CURVE",
"141 342 OFFCURVE",
"141 245 OFFCURVE",
"141 149 CURVE",
"141 139 OFFCURVE",
"141 138 OFFCURVE",
"152 138 CURVE",
"648 138 LINE",
"657 138 OFFCURVE",
"657 139 OFFCURVE",
"657 148 CURVE",
"657 245 OFFCURVE",
"657 342 OFFCURVE",
"657 438 CURVE",
"657 448 OFFCURVE",
"657 448 OFFCURVE",
"647 448 CURVE",
"400 448 LINE"
);
},
{
closed = 1;
nodes = (
"88 87 LINE",
"86 87 OFFCURVE",
"83 87 OFFCURVE",
"80 87 CURVE",
"72 86 OFFCURVE",
"66 80 OFFCURVE",
"64 72 CURVE",
"63 66 OFFCURVE",
"67 58 OFFCURVE",
"74 55 CURVE",
"79 54 OFFCURVE",
"84 53 OFFCURVE",
"90 53 CURVE",
"296 53 OFFCURVE",
"503 53 OFFCURVE",
"710 53 CURVE",
"713 53 OFFCURVE",
"717 53 OFFCURVE",
"720 53 CURVE",
"732 55 OFFCURVE",
"738 68 OFFCURVE",
"732 79 CURVE",
"727 86 OFFCURVE",
"721 87 OFFCURVE",
"715 87 CURVE",
"610 87 OFFCURVE",
"505 87 OFFCURVE",
"400 87 CURVE"
);
},
{
closed = 1;
nodes = (
"408 431 OFFCURVE",
"417 431 OFFCURVE",
"424 431 CURVE",
"435 430 OFFCURVE",
"442 423 OFFCURVE",
"442 413 CURVE",
"442 403 OFFCURVE",
"435 397 OFFCURVE",
"424 396 CURVE",
"408 396 OFFCURVE",
"391 396 OFFCURVE",
"375 396 CURVE",
"364 397 OFFCURVE",
"356 403 OFFCURVE",
"356 413 CURVE",
"356 423 OFFCURVE",
"364 431 OFFCURVE",
"375 431 CURVE",
"383 431 OFFCURVE",
"392 431 OFFCURVE",
"400 431 CURVE"
);
}
);
width = 800;
}
);
unicode = E054;
},
{
glyphname = uniE055;
lastChange = "2019-06-17 16:44:52 +0000";
layers = (
{
layerId = "4E71560D-37DE-4538-9E60-5090AC0C42A9";
paths = (
{
closed = 1;
nodes = (
"19 435 OFFCURVE",
"19 517 OFFCURVE",
"19 600 CURVE",
"19 657 OFFCURVE",
"66 700 OFFCURVE",
"116 700 CURVE",
"245 700 OFFCURVE",
"371 700 OFFCURVE",
"497 700 CURVE",
"507 700 OFFCURVE",
"518 700 OFFCURVE",
"521 689 CURVE",
"529 679 OFFCURVE",
"526 660 OFFCURVE",
"511 657 CURVE",
"507 657 OFFCURVE",
"500 657 OFFCURVE",
"493 657 CURVE",
"371 657 OFFCURVE",
"245 657 OFFCURVE",
"123 657 CURVE",
"91 657 OFFCURVE",
"73 642 OFFCURVE",
"62 613 CURVE",
"62 607 OFFCURVE",
"62 600 OFFCURVE",
"62 596 CURVE",
"62 434 OFFCURVE",
"62 273 OFFCURVE",
"62 108 CURVE",
"62 69 OFFCURVE",
"91 44 OFFCURVE",
"126 44 CURVE",
"281 44 OFFCURVE",
"435 44 OFFCURVE",
"586 44 CURVE",
"625 44 OFFCURVE",
"647 69 OFFCURVE",
"650 104 CURVE",
"650 180 OFFCURVE",
"650 255 OFFCURVE",
"650 330 CURVE",
"650 348 OFFCURVE",
"658 355 OFFCURVE",
"672 355 CURVE",
"684 355 OFFCURVE",
"694 345 OFFCURVE",
"694 330 CURVE",
"694 255 OFFCURVE",
"694 176 OFFCURVE",
"694 97 CURVE SMOOTH",
"694 89 OFFCURVE",
"690 83 OFFCURVE",
"690 79 CURVE",
"679 32 OFFCURVE",
"640 0 OFFCURVE",
"593 0 CURVE",
"521 0 OFFCURVE",
"450 0 OFFCURVE",
"378 0 CURVE",
"292 0 OFFCURVE",
"205 0 OFFCURVE",
"123 0 CURVE",
"62 0 OFFCURVE",
"19 44 OFFCURVE",
"19 104 CURVE",
"19 187 OFFCURVE",
"19 269 OFFCURVE",
"19 351 CURVE SMOOTH"
);
},
{
closed = 1;
nodes = (
"454 319 OFFCURVE",
"460 326 OFFCURVE",
"475 330 CURVE",
"460 338 OFFCURVE",
"454 345 OFFCURVE",
"442 351 CURVE",
"442 338 OFFCURVE",
"442 330 OFFCURVE",
"442 316 CURVE"
);
},
{
closed = 1;
nodes = (
"679 679 OFFCURVE",
"672 667 OFFCURVE",
"665 657 CURVE",
"662 653 OFFCURVE",
"662 650 OFFCURVE",
"665 647 CURVE",
"684 632 OFFCURVE",
"701 621 OFFCURVE",
"719 607 CURVE",
"719 603 OFFCURVE",
"726 607 OFFCURVE",
"726 607 CURVE",
"734 617 OFFCURVE",
"744 628 OFFCURVE",
"751 642 CURVE",
"729 657 OFFCURVE",
"712 675 OFFCURVE",
"690 689 CURVE"
);
},
{
closed = 1;
nodes = (
"630 613 OFFCURVE",
"625 610 OFFCURVE",
"622 607 CURVE",
"593 571 OFFCURVE",
"565 531 OFFCURVE",
"536 496 CURVE",
"514 467 OFFCURVE",
"489 434 OFFCURVE",
"460 402 CURVE",
"457 398 OFFCURVE",
"454 395 OFFCURVE",
"460 388 CURVE",
"482 377 OFFCURVE",
"500 363 OFFCURVE",
"521 348 CURVE",
"579 420 OFFCURVE",
"637 496 OFFCURVE",
"694 568 CURVE",
"672 585 OFFCURVE",
"655 600 OFFCURVE",
"633 617 CURVE"
);
},
{
closed = 1;
nodes = (
"403 334 OFFCURVE",
"403 363 OFFCURVE",
"407 391 CURVE",
"410 398 OFFCURVE",
"414 402 OFFCURVE",
"417 409 CURVE",
"497 513 OFFCURVE",
"576 617 OFFCURVE",
"658 718 CURVE",
"672 739 OFFCURVE",
"694 743 OFFCURVE",
"716 729 CURVE",
"737 707 OFFCURVE",
"758 692 OFFCURVE",
"783 675 CURVE",
"801 657 OFFCURVE",
"805 639 OFFCURVE",
"788 617 CURVE",
"744 560 OFFCURVE",
"701 506 OFFCURVE",
"655 449 CURVE",
"622 402 OFFCURVE",
"586 359 OFFCURVE",
"551 312 CURVE",
"543 301 OFFCURVE",
"529 294 OFFCURVE",
"511 291 CURVE",
"486 284 OFFCURVE",
"460 269 OFFCURVE",
"432 262 CURVE",
"410 255 OFFCURVE",
"400 266 OFFCURVE",
"400 291 CURVE",
"400 294 OFFCURVE",
"400 298 OFFCURVE",
"400 301 CURVE"
);
},
{
closed = 1;
nodes = (
"410 208 OFFCURVE",
"467 208 OFFCURVE",
"526 208 CURVE",
"539 208 OFFCURVE",
"551 201 OFFCURVE",
"551 187 CURVE",
"551 172 OFFCURVE",
"539 165 OFFCURVE",
"526 165 CURVE",
"410 165 OFFCURVE",
"296 165 OFFCURVE",
"180 165 CURVE",
"166 165 OFFCURVE",
"159 168 OFFCURVE",
"156 180 CURVE",
"152 190 OFFCURVE",
"156 197 OFFCURVE",
"163 205 CURVE",
"170 205 OFFCURVE",
"173 208 OFFCURVE",
"177 208 CURVE",
"235 208 OFFCURVE",
"296 208 OFFCURVE",
"353 208 CURVE SMOOTH"
);
},
{
closed = 1;
nodes = (
"242 467 OFFCURVE",
"210 467 OFFCURVE",
"177 467 CURVE",
"166 467 OFFCURVE",
"159 474 OFFCURVE",
"156 484 CURVE",
"152 492 OFFCURVE",
"156 502 OFFCURVE",
"163 506 CURVE",
"166 509 OFFCURVE",
"173 509 OFFCURVE",
"177 509 CURVE",
"242 513 OFFCURVE",
"309 513 OFFCURVE",
"375 513 CURVE",
"388 509 OFFCURVE",
"400 502 OFFCURVE",
"396 489 CURVE",
"396 474 OFFCURVE",
"388 467 OFFCURVE",
"375 467 CURVE",
"343 467 OFFCURVE",
"309 467 OFFCURVE",
"277 467 CURVE SMOOTH"
);
},
{
closed = 1;
nodes = (
"220 316 OFFCURVE",
"198 316 OFFCURVE",
"177 316 CURVE",
"163 316 OFFCURVE",
"156 326 OFFCURVE",
"156 338 CURVE",
"156 351 OFFCURVE",
"163 359 OFFCURVE",
"173 359 CURVE",
"220 359 OFFCURVE",
"264 359 OFFCURVE",
"309 359 CURVE",
"328 359 OFFCURVE",
"335 351 OFFCURVE",
"335 341 CURVE",
"335 330 OFFCURVE",
"324 319 OFFCURVE",
"306 316 CURVE",
"284 316 OFFCURVE",
"264 316 OFFCURVE",
"242 316 CURVE",
"242 316 LINE"
);
}
);
width = 800;
}
);
unicode = E055;
},
{
glyphname = uniE056;
lastChange = "2019-08-14 07:14:22 +0000";
layers = (
{
layerId = "4E71560D-37DE-4538-9E60-5090AC0C42A9";
paths = (
{
closed = 1;
nodes = (
"302 255 LINE",
"22 16 LINE",
"32 6 OFFCURVE",
"45 0 OFFCURVE",
"60 0 CURVE",
"738 0 LINE",
"753 0 OFFCURVE",
"768 6 OFFCURVE",
"777 16 CURVE",
"496 255 LINE",
"400 171 LINE"
);
},
{
closed = 1;
nodes = (
"768 552 OFFCURVE",
"753 557 OFFCURVE",
"738 557 CURVE",
"60 557 LINE",
"45 557 OFFCURVE",
"33 552 OFFCURVE",
"22 542 CURVE",
"400 218 LINE",
"778 543 LINE"
);
},
{
closed = 1;
nodes = (
"4 46 LINE",
"277 279 LINE",
"4 516 LINE"
);
},
{
closed = 1;
nodes = (
"795 46 LINE",
"795 516 LINE",
"522 279 LINE"
);
}
);
width = 800;
}
);
unicode = E056;
},
{
glyphname = uniE057;
lastChange = "2019-08-14 07:38:08 +0000";
layers = (
{
hints = (
{
horizontal = 1;
place = "{758, -2147483648}";
type = Delta;
settings = {
deltaV = {
"{100, 100, 0, 0, 0, 0}" = {
"24" = 0;
};
};
};
}
);
layerId = "4E71560D-37DE-4538-9E60-5090AC0C42A9";
paths = (
{
closed = 1;
nodes = (
"300 255 LINE",
"20 16 LINE",
"30 6 OFFCURVE",
"43 0 OFFCURVE",
"58 0 CURVE",
"741 0 LINE",
"756 0 OFFCURVE",
"771 6 OFFCURVE",
"780 16 CURVE",
"499 255 LINE"
);
},
{
closed = 1;
nodes = (
"400 787 LINE",
"145 624 OFFCURVE",
"20 542 OFFCURVE",
"20 542 CURVE",
"326 294 LINE",
"476 294 LINE",
"781 543 LINE"
);
},
{
closed = 1;
nodes = (
"2 46 LINE",
"275 279 LINE",
"2 516 LINE"
);
},
{
closed = 1;
nodes = (
"798 46 LINE",
"798 516 LINE",
"525 279 LINE"
);
}
);
width = 800;
}
);
unicode = E057;
},
{
glyphname = uniE058;
lastChange = "2019-10-20 08:05:33 +0000";
layers = (
{
hints = (
{
horizontal = 1;
place = "{758, -2147483648}";
type = Delta;
settings = {
deltaV = {
"{100, 100, 0, 0, 0, 0}" = {
"24" = 0;
};
};
};
}
);
layerId = "4E71560D-37DE-4538-9E60-5090AC0C42A9";
paths = (
{
closed = 1;
nodes = (
"361 699 OFFCURVE",
"330 668 OFFCURVE",
"330 629 CURVE SMOOTH",
"330 591 OFFCURVE",
"361 560 OFFCURVE",
"400 560 CURVE SMOOTH",
"439 560 OFFCURVE",
"470 591 OFFCURVE",
"470 629 CURVE SMOOTH",
"470 668 OFFCURVE",
"439 699 OFFCURVE",
"400 699 CURVE SMOOTH"
);
},
{
closed = 1;
nodes = (
"361 416 OFFCURVE",
"330 385 OFFCURVE",
"330 346 CURVE SMOOTH",
"330 308 OFFCURVE",
"361 277 OFFCURVE",
"400 277 CURVE SMOOTH",
"439 277 OFFCURVE",
"470 308 OFFCURVE",
"470 346 CURVE SMOOTH",
"470 385 OFFCURVE",
"439 416 OFFCURVE",
"400 416 CURVE SMOOTH"
);
},
{
closed = 1;
nodes = (
"361 140 OFFCURVE",
"330 109 OFFCURVE",
"330 70 CURVE SMOOTH",
"330 32 OFFCURVE",
"361 1 OFFCURVE",
"400 1 CURVE SMOOTH",
"439 1 OFFCURVE",
"470 32 OFFCURVE",
"470 70 CURVE SMOOTH",
"470 109 OFFCURVE",
"439 140 OFFCURVE",
"400 140 CURVE SMOOTH"
);
}
);
width = 800;
}
);
unicode = E058;
},
{
glyphname = uniE059;
lastChange = "2019-10-26 06:52:41 +0000";
layers = (
{
layerId = "4E71560D-37DE-4538-9E60-5090AC0C42A9";
paths = (
{
closed = 1;
nodes = (
"260 620 LINE",
"420 620 LINE",
"490 700 LINE",
"190 700 LINE"
);
},
{
closed = 1;
nodes = (
"241 450 LINE",
"439 450 LINE",
"420 610 LINE",
"260 610 LINE"
);
},
{
closed = 1;
nodes = (
"60 332 LINE",
"618 332 LINE",
"439 440 LINE",
"241 440 LINE"
);
},
{
closed = 1;
nodes = (
"319 0 LINE",
"340 -53 LINE",
"360 0 LINE",
"360 322 LINE",
"319 322 LINE"
);
}
);
width = 678;
}
);
unicode = E059;
},
{
glyphname = uniE060;
lastChange = "2019-10-20 09:19:30 +0000";
layers = (
{
layerId = "4E71560D-37DE-4538-9E60-5090AC0C42A9";
paths = (
{
closed = 1;
nodes = (
"32 0 LINE",
"642 0 LINE",
"642 600 LINE",
"32 600 LINE"
);
},
{
closed = 1;
nodes = (
"0 615 LINE",
"678 615 LINE",
"678 699 LINE",
"0 699 LINE"
);
},
{
closed = 1;
nodes = (
"452 500 LINE",
"452 430 LINE",
"222 430 LINE",
"222 500 LINE"
);
}
);
width = 678;
}
);
unicode = E060;
},
{
glyphname = uniE061;
lastChange = "2019-10-26 07:02:50 +0000";
layers = (
{
layerId = "4E71560D-37DE-4538-9E60-5090AC0C42A9";
paths = (
{
closed = 1;
nodes = (
"20 615 LINE",
"658 615 LINE",
"658 699 LINE",
"20 699 LINE"
);
},
{
closed = 1;
nodes = (
"20 410 LINE",
"658 410 LINE",
"658 494 LINE",
"20 494 LINE"
);
},
{
closed = 1;
nodes = (
"20 205 LINE",
"658 205 LINE",
"658 289 LINE",
"20 289 LINE"
);
},
{
closed = 1;
nodes = (
"20 0 LINE",
"658 0 LINE",
"658 84 LINE",
"20 84 LINE"
);
}
);
width = 678;
}
);
unicode = E061;
},
{
glyphname = uniE062;
lastChange = "2019-10-26 07:11:01 +0000";
layers = (
{
layerId = "4E71560D-37DE-4538-9E60-5090AC0C42A9";
paths = (
{
closed = 1;
nodes = (
"483 0 LINE",
"658 0 LINE",
"658 700 LINE",
"483 700 LINE"
);
},
{
closed = 1;
nodes = (
"252 0 LINE",
"427 0 LINE",
"427 270 LINE",
"252 270 LINE"
);
},
{
closed = 1;
nodes = (
"20 0 LINE",
"195 0 LINE",
"195 500 LINE",
"20 500 LINE"
);
}
